<svg width="20" height="20" viewBox="0 0 20 20" fill="none" xmlns="http://www.w3.org/2000/svg">
<path d="M20 18.8889C20 19.5025 19.5025 20 18.8889 20H1.11111C0.497461 20 0 19.5025 0 18.8889V0.999998C0 0.447714 0.447715 0 1 0H1.22222C1.77451 0 2.22222 0.447715 2.22222 1V17.7778H18.8889C19.5025 17.7778 20 18.2752 20 18.8889ZM5.97037 14.4444C5.97013 14.4444 5.96991 14.4444 5.96974 14.4442L5.17428 13.6655C4.77372 13.2734 4.77363 12.6287 5.17409 12.2365L9.84 7.66667C10.2647 7.25387 10.9408 7.25387 11.3656 7.66667L13.84 10.09L17.7749 6.23998C18.1637 5.85962 18.7851 5.85969 19.1738 6.24014L19.2702 6.33447C19.6707 6.72657 19.6708 7.37129 19.2704 7.76351L14.6044 12.3333C14.1797 12.7461 13.5036 12.7461 13.0789 12.3333L10.6033 9.90889L5.97164 14.4439C5.9713 14.4443 5.97085 14.4444 5.97037 14.4444Z" fill="white"/>
</svg>
