<svg width="24" height="24" viewBox="0 0 24 24" fill="none" xmlns="http://www.w3.org/2000/svg">
<path fill-rule="evenodd" clip-rule="evenodd" d="M12.6393 2.6086e-07H11.1573C10.3226 2.6086e-07 9.52233 0.325861 8.93355 0.905489C8.41168 1.41924 8.09245 2.0966 8.0309 2.81737L8.02069 3.05017C8.0093 3.80823 7.3969 4.39961 6.64521 4.39954C6.47474 4.39776 6.2977 4.35885 6.1347 4.28556L5.97482 4.20206C4.49786 3.3722 2.57754 3.88052 1.71101 5.35399L0.931873 6.60835C0.103391 8.01658 0.512009 9.78571 1.84938 10.6969L2.03538 10.8138C2.49379 11.0741 2.75584 11.5188 2.75584 12C2.75584 12.4426 2.53389 12.8564 2.16374 13.1074L2.03738 13.1849C0.651817 13.9695 0.105887 15.701 0.802359 17.1413L0.904149 17.333L1.66895 18.6269C2.06647 19.33 2.74768 19.8596 3.55334 20.084C4.26744 20.2828 5.02952 20.2278 5.70514 19.9301L5.91878 19.8256C6.27835 19.6219 6.64981 19.5731 6.99845 19.6645C7.3471 19.7559 7.64403 19.98 7.82324 20.2869C7.92205 20.4502 7.98005 20.6187 8.00076 20.7932L8.01094 20.9704C8.00918 22.6191 9.41863 24 11.1573 24H12.6397C14.2814 24 15.644 22.7644 15.7772 21.1697L15.7869 20.9638C15.786 20.5654 15.9298 20.2229 16.1873 19.9707C16.4447 19.7185 16.7943 19.5775 17.1584 19.5793C17.3257 19.5838 17.5096 19.6249 17.6799 19.6995L17.8433 19.782C19.2213 20.5613 21.027 20.1609 21.957 18.8506L22.0763 18.6684L22.8679 17.3765C23.2941 16.66 23.4094 15.8181 23.1943 15.0276C23.0036 14.3269 22.5664 13.7157 21.9612 13.3009L21.7609 13.1751C21.4127 12.9779 21.1831 12.6849 21.0896 12.3412C20.9961 11.9975 21.0462 11.6315 21.229 11.3241C21.3302 11.1511 21.4648 11.0071 21.6262 10.8968L21.9349 10.7067C23.1852 9.87512 23.6534 8.23823 22.9953 6.8621L22.927 6.72809C22.9123 6.69314 22.8952 6.65906 22.8758 6.62609L22.14 5.37513C21.3213 3.98302 19.5511 3.44277 18.0752 4.1226L17.8786 4.22206C17.5259 4.42425 17.1534 4.47536 16.8028 4.38617C16.4522 4.29697 16.1522 4.0748 15.9689 3.76865C15.8749 3.61339 15.8169 3.44495 15.7962 3.27042L15.786 3.09319C15.8118 2.33962 15.491 1.53217 14.8979 0.934453C14.3049 0.336738 13.4901 -0.000342311 12.6393 2.6086e-07ZM11.1572 1.73731H12.6396C13.0116 1.73716 13.3674 1.88437 13.6264 2.14541C13.8854 2.40646 14.0255 2.7591 14.0149 3.123L14.0306 3.42547C14.0842 3.88783 14.2227 4.29007 14.4416 4.65141C14.8607 5.3516 15.5507 5.86257 16.3571 6.06771C17.1635 6.27285 18.0201 6.15531 18.7379 5.741L18.8617 5.6792L18.9949 5.62694C19.581 5.43425 20.2716 5.67812 20.6035 6.24252L21.3053 7.43673L21.3205 7.47037L21.4054 7.63062C21.6893 8.22606 21.452 8.97926 20.8376 9.33138L20.6447 9.4504C20.2356 9.72881 19.9218 10.0646 19.6935 10.4552C19.2764 11.1565 19.161 11.9984 19.3762 12.7889C19.5718 13.5075 20.0259 14.1297 20.6506 14.5434L20.9774 14.7458C21.2079 14.9048 21.398 15.1706 21.4809 15.4752C21.5744 15.8189 21.5243 16.185 21.3415 16.4923L20.5682 17.7549L20.4812 17.8881C20.1235 18.391 19.4175 18.5777 18.8224 18.3218L18.4433 18.1321C18.0204 17.9456 17.6067 17.8533 17.1863 17.8423C16.3296 17.838 15.5254 18.1622 14.9334 18.7422C14.3413 19.3223 14.0105 20.1102 14.0145 20.9305L14.0077 21.0614C13.9518 21.7228 13.3564 22.2627 12.6396 22.2627H11.1572C10.4485 22.2627 9.86504 21.7374 9.7904 21.0625L9.76621 20.6382C9.71259 20.1758 9.57408 19.7736 9.35518 19.4122C8.94827 18.7151 8.26227 18.1975 7.45678 17.9863C6.6513 17.7751 5.79308 17.8879 5.07289 18.2996L4.94243 18.3622C4.68276 18.4757 4.34991 18.4997 4.03804 18.4129C3.68618 18.3149 3.38868 18.0836 3.21136 17.7701L2.45627 16.4939L2.38872 16.366C2.10268 15.7728 2.34018 15.0196 2.9556 14.6707L3.14257 14.5556C4.02089 13.9609 4.52899 13.0135 4.52899 12C4.52899 10.9716 4.00629 10.016 3.14468 9.44522L2.83182 9.25111C2.27901 8.87361 2.10046 8.10055 2.45748 7.49348L3.23662 6.23911C3.62582 5.5778 4.46449 5.3558 5.12222 5.72504L5.35306 5.84433C5.7842 6.03953 6.20699 6.13243 6.63585 6.1368C8.29957 6.13701 9.66 4.88507 9.78415 3.28982L9.80027 2.92395C9.82463 2.6489 9.96344 2.35437 10.1903 2.131C10.4463 1.87899 10.7943 1.73731 11.1572 1.73731ZM11.9039 8.07817C9.69314 8.07817 7.90098 9.83403 7.90098 12C7.90098 14.1659 9.69314 15.9218 11.9039 15.9218C14.1146 15.9218 15.9068 14.1659 15.9068 12C15.9068 9.83403 14.1146 8.07817 11.9039 8.07817ZM11.9038 9.81553C13.1353 9.81553 14.1335 10.7936 14.1335 12.0001C14.1335 13.2065 13.1353 14.1846 11.9038 14.1846C10.6724 14.1846 9.67412 13.2065 9.67412 12.0001C9.67412 10.7936 10.6724 9.81553 11.9038 9.81553Z" fill="white"/>
</svg>
