<svg width="22" height="18" viewBox="0 0 22 18" fill="none" xmlns="http://www.w3.org/2000/svg">
<path d="M7.7 16.5597C7.7 16.9789 7.21503 17.212 6.88765 16.9501L2.68804 13.5904C2.43784 13.3903 2.43784 13.0097 2.68804 12.8096L6.88765 9.44988C7.21504 9.18797 7.7 9.42106 7.7 9.84031V12.1H21C21.5523 12.1 22 12.5477 22 13.1V13.3C22 13.8523 21.5523 14.3 21 14.3H7.7V16.5597ZM15.1123 8.15012C14.785 8.41203 14.3 8.17894 14.3 7.75969V5.5H1C0.447716 5.5 0 5.05228 0 4.5V4.3C0 3.74772 0.447715 3.3 1 3.3H14.3V1.04031C14.3 0.621058 14.785 0.387973 15.1123 0.649878L19.312 4.00957C19.5622 4.20973 19.5622 4.59027 19.312 4.79043L15.1123 8.15012Z" fill="white"/>
</svg>
