<svg width="14" height="22" viewBox="0 0 14 22" fill="none" xmlns="http://www.w3.org/2000/svg">
<path fill-rule="evenodd" clip-rule="evenodd" d="M3.38974 3.20798C2.60292 3.93263 2 5.10459 2 6.94737C2 9.10152 2.29495 9.49035 2.35141 9.56477L2.35507 9.56962C2.42518 9.66401 2.46434 9.7023 2.5552 9.79113L2.55521 9.79113L2.55521 9.79114C2.63202 9.86623 2.74576 9.97742 2.94634 10.1891C3.31589 10.5792 3.72466 11.0825 4.10464 11.8424C4.57237 12.7779 4.88147 13.5674 5.08531 14.2105H8.80943C9.01327 13.5674 9.32236 12.7779 9.79009 11.8424C10.1701 11.0825 10.5788 10.5792 10.9484 10.1891C11.149 9.97742 11.2627 9.86623 11.3395 9.79114C11.4304 9.70231 11.4696 9.66402 11.5397 9.56962L11.5433 9.56477C11.5998 9.49035 11.8947 9.10152 11.8947 6.94737C11.8947 5.10459 11.2918 3.93263 10.505 3.20798C9.69125 2.45852 8.47478 2 6.94737 2C5.41996 2 4.20349 2.45852 3.38974 3.20798ZM0 6.94737C0 2.31579 3.11044 0 6.94737 0C10.7843 0 13.8947 2.31579 13.8947 6.94737C13.8947 10.0663 13.3384 10.6223 12.6425 11.3179C12.305 11.6553 11.9346 12.0255 11.5789 12.7368C11.0369 13.8209 10.7486 14.6512 10.5953 15.2278C10.4533 15.7615 9.97334 16.2105 9.42105 16.2105H4.47368C3.9214 16.2105 3.44139 15.7615 3.29944 15.2278C3.1461 14.6512 2.8578 13.8209 2.31579 12.7368C1.96012 12.0255 1.58975 11.6553 1.25222 11.3179C0.556301 10.6223 0 10.0663 0 6.94737ZM3.47368 17.8684C3.47368 17.5923 3.69754 17.3684 3.97368 17.3684H9.92105C10.1972 17.3684 10.4211 17.5923 10.4211 17.8684V20.5831C10.4211 20.7455 10.3425 20.8976 10.2066 20.9865C9.80073 21.2521 8.89476 21.8073 8.15838 21.9876C8.12295 21.9963 8.08644 22 8.04996 22H5.84436C5.80788 22 5.77179 21.9963 5.73635 21.9876C4.99997 21.8073 4.09401 21.2521 3.68811 20.9865C3.5522 20.8976 3.47368 20.7455 3.47368 20.5831V17.8684ZM5.63158 6.36841C5.63158 6.36922 5.63162 6.36886 5.63179 6.36738C5.63288 6.35783 5.63931 6.30148 5.67462 6.20878C5.71262 6.10902 5.77115 6.00197 5.84666 5.90759C5.99331 5.72427 6.16121 5.63158 6.36842 5.63158C6.9207 5.63158 7.36842 5.18386 7.36842 4.63158C7.36842 4.07929 6.9207 3.63158 6.36842 3.63158C5.41773 3.63158 4.71721 4.11783 4.28492 4.65819C3.87797 5.16687 3.63158 5.8157 3.63158 6.36841C3.63158 6.92069 4.07929 7.36841 4.63158 7.36841C5.18386 7.36841 5.63158 6.92069 5.63158 6.36841Z" fill="white"/>
</svg>
