<svg width="21" height="24" viewBox="0 0 21 24" fill="none" xmlns="http://www.w3.org/2000/svg">
<path fill-rule="evenodd" clip-rule="evenodd" d="M10.0466 6.1686e-05C13.4714 6.1686e-05 16.265 2.70802 16.4025 6.09918L16.4078 6.36135V8.25245C18.5397 8.99241 20.0701 11.0186 20.0701 13.4028V18.5497C20.0701 21.5604 17.6299 24.0001 14.6197 24.0001H5.45043C2.44018 24.0001 0 21.5604 0 18.5497V13.4028C0 11.0185 1.5305 8.99223 3.66256 8.25235L3.66257 6.33341C3.67794 2.8198 6.5376 -0.0152444 10.0466 6.1686e-05ZM14.6078 6.36135V7.95241H5.46257V6.33735L5.46953 6.10297C5.60219 3.69669 7.6026 1.78943 10.0427 1.80006C12.5651 1.80007 14.6078 3.84278 14.6078 6.36135ZM14.6194 9.7525H5.45015C3.43394 9.7525 1.79973 11.3864 1.79973 13.4029V18.5497C1.79973 20.5662 3.43394 22.2002 5.45015 22.2002H14.6194C16.6356 22.2002 18.2698 20.5662 18.2698 18.5497V13.4029C18.2698 11.3864 16.6356 9.7525 14.6194 9.7525ZM10.927 14.5215C10.8674 14.0822 10.4909 13.7436 10.0352 13.7436C9.53816 13.7436 9.13522 14.1466 9.13522 14.6436V17.3088L9.14343 17.431C9.20303 17.8703 9.57958 18.2088 10.0352 18.2088C10.5323 18.2088 10.9352 17.8059 10.9352 17.3088V14.6436L10.927 14.5215Z" fill="white"/>
</svg>
