<svg width="24" height="24" viewBox="0 0 24 24" fill="none" xmlns="http://www.w3.org/2000/svg">
<path fill-rule="evenodd" clip-rule="evenodd" d="M22 12C22 17.5228 17.5228 22 12 22C6.47715 22 2 17.5228 2 12C2 6.47715 6.47715 2 12 2C17.5228 2 22 6.47715 22 12ZM24 12C24 18.6274 18.6274 24 12 24C5.37258 24 0 18.6274 0 12C0 5.37258 5.37258 0 12 0C18.6274 0 24 5.37258 24 12ZM12.8739 13.5008C13.0904 13.7266 13.1986 14.0325 13.1986 14.4183C13.1986 14.79 13.0786 15.0864 12.8387 15.3076C12.5987 15.524 12.2717 15.6323 11.8576 15.6323C11.3588 15.6323 10.9753 15.484 10.7071 15.1876C10.528 14.9828 10.4097 14.7182 10.3524 14.3938C10.3043 14.1219 10.088 13.896 9.81189 13.896H8.77214C8.49599 13.896 8.26855 14.1206 8.29742 14.3952C8.37481 15.1313 8.62988 15.739 9.06263 16.2181C9.59433 16.7968 10.2784 17.138 11.243 17.2415V18.1412C11.243 18.4165 11.4655 18.64 11.7407 18.6412L12.2951 18.6437C12.5722 18.645 12.7974 18.4208 12.7974 18.1437V17.2415C13.6726 17.1521 13.9915 16.8509 14.4902 16.3522C14.989 15.8534 15.2384 15.2041 15.2384 14.4042C15.2384 13.976 15.1725 13.6019 15.0407 13.282C14.909 12.9573 14.7184 12.6703 14.469 12.4209C14.2197 12.1668 13.9138 11.9409 13.5515 11.7433C13.1892 11.541 12.7257 11.3269 12.1611 11.101C11.6012 10.8752 11.2177 10.654 11.0106 10.4376C10.8036 10.2211 10.7001 9.93412 10.7001 9.57652C10.7001 9.19068 10.806 8.88954 11.0177 8.67309C11.2294 8.45194 11.5282 8.34137 11.9141 8.34137C12.3046 8.34137 12.6151 8.48253 12.8457 8.76485C13.0056 8.95357 13.1112 9.20862 13.1624 9.52998C13.2059 9.80268 13.4225 10.0282 13.6986 10.0282H14.7384C15.0145 10.0282 15.2419 9.80373 15.2134 9.52906C15.1416 8.8364 14.9147 8.257 14.5326 7.79084C14.062 7.21209 13.6302 6.8639 12.7974 6.74626V5.71468C12.7974 5.43854 12.5735 5.21468 12.2974 5.21468H11.743C11.4669 5.21468 11.243 5.43854 11.243 5.71468V6.72509C10.4007 6.80979 9.93076 7.10622 9.42259 7.6144C8.91441 8.12257 8.66033 8.77426 8.66033 9.56946C8.66033 10.0306 8.73326 10.4282 8.87912 10.7623C9.02969 11.0963 9.23673 11.3881 9.50023 11.6374C9.76843 11.8821 10.0884 12.1009 10.4601 12.2938C10.8318 12.4821 11.2741 12.6726 11.787 12.8655C12.2999 13.0585 12.6622 13.2702 12.8739 13.5008Z" fill="white"/>
</svg>
