<svg width="167" height="224" viewBox="0 0 167 224" fill="none" xmlns="http://www.w3.org/2000/svg">
<g opacity="0.5" filter="url(#filter0_f)">
<ellipse cx="102" cy="196.551" rx="40" ry="1.5" fill="#4B4B4B"/>
</g>
<path d="M110.06 165.596L125.694 0.0709229L99.5278 166.151C104.559 166.975 108.24 166.847 110.06 165.596Z" fill="#5E696C"/>
<path d="M99.5276 166.151L125.637 0.0991821L95.7896 165.426C97.1256 165.729 98.3858 165.98 99.5702 166.179" fill="#606C6F"/>
<path d="M95.7329 165.397L125.58 0.0709229L92.4639 164.587C93.5914 164.891 94.6811 165.161 95.7329 165.397Z" fill="#636F72"/>
<path d="M92.4637 164.587L125.637 0.0991821L89.3511 163.72C90.4218 164.033 91.4594 164.327 92.4637 164.601" fill="#647275"/>
<path d="M89.351 163.72L125.637 0.0991821L86.3662 162.782L89.3936 163.72" fill="#687578"/>
<path d="M86.3668 162.782L125.638 0.0991821L83.311 161.787L86.3242 162.782" fill="#69787B"/>
<path d="M83.3107 161.787L125.637 0.0991821L80.269 160.707L83.3107 161.787Z" fill="#6D7C7D"/>
<path d="M80.2684 160.707L125.637 0.0991821L77.1699 159.57L80.2684 160.721" fill="#6F7D80"/>
<path d="M77.1563 159.542L125.637 0.0991821L73.9868 158.305L77.1705 159.556" fill="#728083"/>
<path d="M73.9877 158.305L125.638 0.0991821L70.7329 156.955L74.0304 158.305" fill="#748386"/>
<path d="M70.7316 156.955L125.637 0.0991821L67.2778 155.505L70.689 156.926" fill="#778689"/>
<path d="M67.2779 155.505L125.637 0.0991821L63.7388 153.942L67.2636 155.505" fill="#79898C"/>
<path d="M63.7382 153.942L125.636 0.0991821L60.0996 152.264L63.7524 153.942" fill="#7C8C8F"/>
<path d="M60.1007 152.264L125.637 0.0991821L56.2632 150.431L60.0865 152.264" fill="#7D8F92"/>
<path d="M56.261 150.431L125.635 0.0991821L51.9971 148.327L56.261 150.445" fill="#819195"/>
<path d="M51.9989 148.327L125.637 0.0991821L45.8872 145.144C47.9339 146.233 49.9711 147.29 51.9989 148.313" fill="#829498"/>
<path d="M45.887 145.144L125.637 0.0991821L35.1987 139.188C38.0413 140.837 40.9645 142.486 43.9682 144.135L45.8443 145.144" fill="#86979B"/>
<path d="M35.1986 139.188L125.636 0.0991821L29.0728 135.479C31.0531 136.72 33.1093 137.966 35.2412 139.217" fill="#829498"/>
<path d="M29.0747 135.45L125.638 0.0991821L24.4839 132.537C25.962 133.484 27.4923 134.47 29.0747 135.493" fill="#819195"/>
<path d="M24.4683 132.508L125.637 0.0991821L20.6592 129.95C21.891 130.803 23.1654 131.66 24.4825 132.522" fill="#7D8F92"/>
<path d="M20.6595 129.921L125.637 0.0991821L17.4331 127.633C18.4659 128.391 19.5414 129.154 20.6595 129.921Z" fill="#7C8C8F"/>
<path d="M17.4326 127.633L125.637 0.0991821L14.6753 125.601C15.5565 126.273 16.4756 126.96 17.4326 127.662" fill="#79898C"/>
<path d="M14.6755 125.572L125.637 0.0991821L12.2593 123.753C13.0268 124.369 13.8275 124.994 14.6613 125.629" fill="#778689"/>
<path d="M12.2584 123.753L125.636 0.0991821L10.1406 121.962C10.8229 122.54 11.5335 123.123 12.2726 123.71" fill="#748386"/>
<path d="M10.141 121.934L125.637 0.0991821L8.19385 120.285C8.80027 120.825 9.43512 121.379 10.0984 121.948" fill="#728083"/>
<path d="M8.1942 120.285L125.637 0.0991821L6.53125 118.722C7.07135 119.233 7.63989 119.759 8.23684 120.299" fill="#6F7D80"/>
<path d="M6.532 118.693L125.638 0.0991821L5.01123 117.201C5.485 117.693 5.9919 118.2 6.532 118.722" fill="#6D7C7D"/>
<path d="M5.01146 117.172L125.638 0.0991821L3.64697 115.68C4.06389 116.163 4.53766 116.637 5.06828 117.101" fill="#69787B"/>
<path d="M3.64728 115.68L125.638 0.0991821L2.51025 114.202C2.87032 114.676 3.27303 115.149 3.71837 115.623" fill="#687578"/>
<path d="M2.50845 114.202L125.636 0.0991821L1.41406 112.752C1.71727 113.226 2.0631 113.7 2.45159 114.173" fill="#647275"/>
<path d="M1.41383 112.724L125.636 0.0991821L0.561035 111.231C0.799428 111.762 1.07488 112.275 1.38537 112.766" fill="#636F72"/>
<path d="M0.577056 111.203L125.652 0.0709229L0.0795898 109.512C0.175466 110.086 0.347519 110.645 0.59124 111.175" fill="#606C6F"/>
<path d="M0.0642761 109.539L125.637 0.0985107L0.973934 106.825C0.59091 107.159 0.304462 107.589 0.144476 108.072C-0.0155097 108.554 -0.0432016 109.071 0.0642761 109.568" fill="#5E696C"/>
<path d="M111.297 163.55L125.638 0.0991211L110.003 165.625C110.355 165.4 110.649 165.097 110.864 164.739C111.078 164.382 111.207 163.979 111.24 163.564" fill="#5E696C"/>
<path d="M0.974121 106.797L125.637 0.098877L4.68371 105.588C3.4741 105.636 2.29606 105.988 1.25836 106.612L0.974121 106.825" fill="#5E696C"/>
<path d="M4.68457 105.56L125.638 0.098877L7.02972 105.532C6.24874 105.483 5.46555 105.483 4.68457 105.532" fill="#606C6F"/>
<path d="M7.02801 105.503L125.636 0.098877L9.08893 105.688C8.34037 105.612 7.63447 105.56 6.97119 105.532" fill="#636F72"/>
<path d="M9.14648 105.66L125.694 0.0706177L11.2216 105.915C10.5204 105.811 9.84763 105.726 9.20331 105.66" fill="#647275"/>
<path d="M11.1646 105.915L125.637 0.098877L13.1544 106.285L11.1646 105.944" fill="#687578"/>
<path d="M13.1543 106.256L125.637 0.098877L15.1015 106.697L13.1543 106.299" fill="#69787B"/>
<path d="M15.1035 106.697L125.639 0.098877L17.0365 107.138L15.1035 106.683" fill="#6D7C7D"/>
<path d="M17.0352 107.109L125.637 0.098877L19.0392 107.649L17.0778 107.152" fill="#6F7D80"/>
<path d="M18.9951 107.621L125.593 0.0706177L20.9849 108.118L19.0378 107.578" fill="#728083"/>
<path d="M20.9849 108.118L125.664 0.098877L22.9747 108.772L20.9849 108.118Z" fill="#748386"/>
<path d="M22.9478 108.744L125.637 0.098877L24.966 109.397L22.9478 108.772" fill="#778689"/>
<path d="M24.9521 109.369L125.638 0.098877L27.013 110.08L24.9663 109.412" fill="#79898C"/>
<path d="M27.0132 110.051L125.638 0.098877L29.1025 110.79L27.0132 110.065" fill="#7C8C8F"/>
<path d="M29.1021 110.762L125.637 0.098877L31.234 111.529L29.1021 110.762Z" fill="#7D8F92"/>
<path d="M31.2344 111.529L125.638 0.098877L33.4232 112.382L31.2344 111.572" fill="#819195"/>
<path d="M33.4219 112.382L125.636 0.098877L35.6391 113.221L33.4219 112.368" fill="#829498"/>
<path d="M35.6387 113.192L125.636 0.098877L37.8844 114.088L35.6387 113.192Z" fill="#86979B"/>
<path d="M37.8853 114.088L125.637 0.098877L40.1451 115.04L37.8994 114.116" fill="#879A9E"/>
<path d="M40.1324 115.012L125.638 0.098877L42.307 115.936L40.104 115.012" fill="#8B9DA0"/>
<path d="M42.3062 115.936L125.637 0.098877L44.5092 116.888L42.3062 115.936Z" fill="#8DA0A3"/>
<path d="M44.5083 116.859L125.637 0.098877L46.5692 117.769L44.5225 116.874" fill="#90A3A6"/>
<path d="M46.5694 117.769L125.637 0.098877L48.5308 118.693L46.541 117.797" fill="#92A5A9"/>
<path d="M48.5317 118.664L125.638 0.098877L50.4505 119.489L48.546 118.608" fill="#95A8AC"/>
<path d="M50.4503 119.489L125.638 0.098877L52.2554 120.398L50.4219 119.546" fill="#96ABAF"/>
<path d="M52.2554 120.398L125.638 0.098877L54.1173 121.308L52.2696 120.427" fill="#9AAEB2"/>
<path d="M54.1162 121.28L125.636 0.098877L55.9923 122.203L54.1446 121.308" fill="#A9BBBF"/>
<path d="M55.9786 122.175L125.623 0.0706177L57.8263 123.099L55.9644 122.175" fill="#B1C2C4"/>
<path d="M57.8262 123.099L125.637 0.098877L60.0576 124.25L57.8262 123.127" fill="#B6C5C9"/>
<path d="M60.0581 124.222L125.637 0.098877L62.4317 125.472L60.0581 124.25" fill="#BACACC"/>
<path d="M62.4326 125.43L125.638 0.098877L67.0661 127.917C65.5216 127.083 63.9771 126.264 62.4326 125.458" fill="#BECDCF"/>
<path d="M67.0665 127.889L125.639 0.098877L68.0471 128.457L67.3223 128.059L67.0522 127.917" fill="#C1D0D2"/>
<path d="M68.0464 128.429L125.638 0.098877L74.1864 131.897C72.1966 130.75 70.1499 129.604 68.0464 128.457" fill="#BECDCF"/>
<path d="M74.186 131.868L125.637 0.098877L77.0713 133.56L74.2287 131.868" fill="#BACACC"/>
<path d="M77.0703 133.56L125.636 0.098877L79.4297 134.981L77.0703 133.56Z" fill="#B6C5C9"/>
<path d="M79.4302 134.981L125.637 0.098877L81.7185 136.402L79.4444 134.981" fill="#B1C2C4"/>
<path d="M81.7183 136.374L125.637 0.0706177L83.9213 137.767L81.7183 136.346" fill="#A9BBBF"/>
<path d="M83.9219 137.767L125.637 0.098877L86.2813 139.387L83.9219 137.866" fill="#9AAEB2"/>
<path d="M86.2803 139.288L125.636 0L88.6397 140.809L86.2803 139.246" fill="#96ABAF"/>
<path d="M88.6396 140.809L125.594 0.0141296L90.9848 142.429L88.6396 140.809Z" fill="#95A8AC"/>
<path d="M91.0142 142.486L125.637 0.098877L93.3167 144.12L91.0284 142.5" fill="#92A5A9"/>
<path d="M93.3169 144.12L125.637 0.098877L95.4346 145.669L93.3169 144.12Z" fill="#90A3A6"/>
<path d="M95.4346 145.669L125.637 0.098877L97.3818 147.147L95.4346 145.726" fill="#8DA0A3"/>
<path d="M97.3813 147.147L125.637 0.098877L99.158 148.526L97.424 147.105" fill="#8B9DA0"/>
<path d="M99.1573 148.526L125.636 0.098877L100.721 149.834L99.1289 148.526" fill="#879A9E"/>
<path d="M100.722 149.834L125.637 0.098877L102.171 151.07L100.75 149.834" fill="#86979B"/>
<path d="M102.171 151.07L125.636 0.098877L103.421 152.179L102.114 151.013" fill="#829498"/>
<path d="M103.423 152.179L125.638 0.098877L104.688 153.373L103.423 152.179Z" fill="#819195"/>
<path d="M104.688 153.373L125.638 0.098877L105.74 154.481L104.646 153.401" fill="#7D8F92"/>
<path d="M105.782 154.453L125.681 0.0706177L106.791 155.505L105.782 154.467" fill="#7C8C8F"/>
<path d="M106.791 155.505L125.637 0.098877L107.686 156.443L106.776 155.434" fill="#79898C"/>
<path d="M107.686 156.443L125.637 0.098877L108.581 157.523L107.686 156.443Z" fill="#778689"/>
<path d="M108.511 157.481L125.566 0.056488L109.236 158.433C109.008 158.12 108.767 157.803 108.511 157.481Z" fill="#748386"/>
<path d="M109.234 158.433L125.636 0.098877L109.874 159.371C109.684 159.067 109.471 158.755 109.234 158.433Z" fill="#728083"/>
<path d="M109.875 159.371L125.637 0.098877L110.4 160.28C110.239 159.987 110.064 159.683 109.875 159.371Z" fill="#6F7D80"/>
<path d="M110.401 160.28L125.637 0.098877L110.841 161.176C110.718 160.882 110.576 160.584 110.415 160.28" fill="#6D7C7D"/>
<path d="M110.841 161.176L125.637 0.098877L111.14 162.128C111.055 161.828 110.95 161.533 110.827 161.247" fill="#69787B"/>
<path d="M111.139 162.128L125.637 0.098877L111.296 162.924C111.27 162.631 111.217 162.341 111.139 162.057" fill="#687578"/>
<path d="M111.296 162.924L125.637 0.098877L111.296 163.549C111.314 163.346 111.314 163.142 111.296 162.938" fill="#647275"/>
<path d="M110.06 165.596C103.622 170.045 74.0443 160.437 43.9979 144.135C13.9514 127.832 -5.17942 111.032 1.25911 106.584C7.69763 102.135 37.2751 111.743 67.3215 128.045C97.368 144.348 116.513 161.148 110.06 165.596Z" fill="#5B6869"/>
<defs>
<filter id="filter0_f" x="37" y="170.051" width="130" height="53" filterUnits="userSpaceOnUse" color-interpolation-filters="sRGB">
<feFlood flood-opacity="0" result="BackgroundImageFix"/>
<feBlend mode="normal" in="SourceGraphic" in2="BackgroundImageFix" result="shape"/>
<feGaussianBlur stdDeviation="12.5" result="effect1_foregroundBlur"/>
</filter>
</defs>
</svg>
