<svg width="197" height="197" viewBox="0 0 197 197" fill="none" xmlns="http://www.w3.org/2000/svg">
<path d="M62.8931 0.000854492L133.364 29.5531V118.968L62.8931 89.8588V0.000854492Z" fill="#FF8225"/>
<path d="M0 27.279L62.8932 0V89.4144L0 113.662V27.279Z" fill="#FF9F57"/>
<path d="M0 113.662L62.8932 89.4142L133.364 118.966L73.2881 139.835L0 113.662Z" fill="#D97932"/>
<g opacity="0.5" filter="url(#filter0_f)">
<ellipse cx="122" cy="170.5" rx="50" ry="1.5" fill="#4B4B4B"/>
</g>
<g filter="url(#filter1_i)">
<path d="M33.3764 42.9239C33.8693 42.7182 34.1814 43.1508 33.9225 43.6792L30.1708 51.3067C29.9403 51.7747 29.4084 51.9981 29.1496 51.7322L24.9546 47.4309C24.6639 47.133 24.9369 46.4557 25.4298 46.25L33.3764 42.9239ZM45.3194 67.9694L40.4295 62.9518L35.2594 57.6328C35.1823 57.5317 35.1385 57.4092 35.134 57.2821C35.1296 57.1551 35.1647 57.0298 35.2346 56.9236L39.8444 47.5195L44.2202 38.6225C44.3243 38.4058 44.5013 38.2326 44.7202 38.1332L53.493 34.4595C53.9859 34.2538 54.298 34.6864 54.0391 35.2148L51.5179 40.3424L45.4896 52.6293C45.4198 52.7355 45.3847 52.8608 45.3891 52.9879C45.3936 53.1149 45.4374 53.2375 45.5145 53.3385L52.2519 60.2675L55.071 63.1575C55.3618 63.4553 55.0888 64.1326 54.5959 64.3383L45.823 68.012C45.7441 68.0551 45.6544 68.0741 45.5648 68.0665C45.4753 68.059 45.3899 68.0252 45.3194 67.9694ZM17.5754 54.0619L19.5292 56.0654L24.6993 61.3845C24.7764 61.4855 24.8202 61.6081 24.8247 61.7351C24.8291 61.8622 24.794 61.9875 24.7241 62.0937L20.1143 71.4977L18.3661 75.0438C18.262 75.2605 18.085 75.4337 17.8661 75.5331L9.09327 79.2068C8.60037 79.4125 8.28831 78.9798 8.54717 78.4515L14.4832 66.395C14.5531 66.2888 14.5882 66.1635 14.5838 66.0364C14.5793 65.9094 14.5355 65.7869 14.4584 65.6858L7.82379 58.881C7.53302 58.5831 7.80605 57.9058 8.29894 57.7001L17.0718 54.0265C17.15 53.9823 17.2394 53.9621 17.3289 53.9684C17.4185 53.9748 17.5042 54.0073 17.5754 54.0619ZM34.4828 72.7849C34.9757 72.5793 35.2452 71.902 34.958 71.6041L30.763 67.3028C30.5042 67.0404 29.9723 67.2602 29.7418 67.7283L25.9901 75.3593C25.7312 75.8877 26.0433 76.3203 26.5362 76.1147L34.4828 72.7849Z" fill="white"/>
</g>
<g filter="url(#filter2_i)">
<path d="M101.629 42.6776C102.099 42.886 102.347 43.5938 102.038 43.91L97.7267 48.4911C97.4644 48.7714 96.9542 48.545 96.7494 48.0599L93.4402 40.0906C93.2103 39.5409 93.5372 39.081 94.0079 39.2894L101.629 42.6776ZM109.62 78.3706L105.743 69.0934L101.647 59.2917C101.589 59.1782 101.564 59.0511 101.574 58.9243C101.584 58.7975 101.629 58.6759 101.704 58.5731L107 52.9249L112.03 47.5821C112.097 47.5173 112.182 47.4753 112.274 47.4624C112.366 47.4495 112.459 47.4662 112.541 47.5102L120.941 51.229C121.412 51.4374 121.66 52.1452 121.351 52.4614L118.476 55.5406L111.556 62.9206C111.482 63.0236 111.437 63.1451 111.427 63.2719C111.417 63.3986 111.441 63.5257 111.499 63.6392L116.831 76.4483L119.066 81.7911C119.295 82.3408 118.969 82.8007 118.498 82.5923L110.079 78.87C109.871 78.7638 109.709 78.5848 109.623 78.367L109.62 78.3706ZM85.9524 40.5829L87.501 44.2873L91.597 54.1034C91.6542 54.2169 91.6791 54.344 91.669 54.4707C91.6588 54.5975 91.614 54.719 91.5395 54.822L86.2434 60.4702L84.2421 62.6044C84.1758 62.6692 84.0906 62.7112 83.9988 62.7241C83.907 62.737 83.8135 62.7203 83.7319 62.6763L75.3135 58.9539C74.8428 58.7455 74.5949 58.0377 74.9039 57.7215L81.7018 50.4744C81.7764 50.3714 81.8212 50.2499 81.8313 50.1232C81.8415 49.9965 81.8166 49.8694 81.7593 49.7558L76.4992 37.1803C76.2692 36.6306 76.5962 36.1707 77.0669 36.3791L85.4853 40.0906C85.696 40.1921 85.8621 40.3672 85.9524 40.5829ZM99.1962 74.0553C99.6669 74.2637 99.9939 73.8038 99.7639 73.2541L96.4404 65.2992C96.2356 64.8105 95.7218 64.5806 95.4631 64.868L91.1515 69.4491C90.8533 69.7653 91.0904 70.4731 91.5611 70.6815L99.1962 74.0553Z" fill="#ECECEC"/>
</g>
<g filter="url(#filter3_i)">
<path d="M57.8245 111.445C58.3103 111.3 58.9371 111.324 58.9516 111.479L59.1411 113.768C59.1411 113.909 58.6553 114.064 58.1694 114.064L50.4493 114.093C49.9149 114.093 49.8226 113.904 50.289 113.763L57.8245 111.445ZM87.7236 113.875L78.7208 113.909L69.203 113.947C68.931 113.947 68.7512 113.899 68.7415 113.816L68.5083 110.998L68.2896 108.331C68.2896 108.263 68.3965 108.19 68.5909 108.132L76.9086 105.571C77.3944 105.426 78.0212 105.45 78.0358 105.605L78.1621 107.141L78.4633 110.823C78.4633 110.906 78.6528 110.955 78.9249 110.955L91.3577 110.906H96.5466C97.081 110.906 97.1733 111.095 96.7069 111.236L88.3892 113.797C88.1722 113.855 87.9482 113.883 87.7236 113.879V113.875ZM45.6394 116.94H49.2347L58.7524 116.901C59.0245 116.901 59.2043 116.95 59.214 117.033L59.4472 119.85L59.5347 120.914C59.5347 120.982 59.4278 121.055 59.2334 121.114L50.9157 123.674C50.4299 123.82 49.8031 123.796 49.7885 123.64L49.4922 120.02C49.4922 119.938 49.3027 119.889 49.0306 119.889L36.8164 119.938C36.282 119.938 36.1897 119.748 36.6561 119.608L44.9738 117.047C45.1899 116.982 45.4139 116.948 45.6394 116.945V116.94ZM77.6179 117.091C78.1038 116.945 77.992 116.756 77.4576 116.76L69.7375 116.79C69.2516 116.79 68.7658 116.945 68.7658 117.086L68.9553 119.374C68.9553 119.535 69.616 119.554 70.0824 119.408L77.6179 117.091Z" fill="#DDB29A"/>
</g>
<defs>
<filter id="filter0_f" x="47" y="144" width="150" height="53" filterUnits="userSpaceOnUse" color-interpolation-filters="sRGB">
<feFlood flood-opacity="0" result="BackgroundImageFix"/>
<feBlend mode="normal" in="SourceGraphic" in2="BackgroundImageFix" result="shape"/>
<feGaussianBlur stdDeviation="12.5" result="effect1_foregroundBlur"/>
</filter>
<filter id="filter1_i" x="6.70459" y="34.4073" width="48.4856" height="45.8518" filterUnits="userSpaceOnUse" color-interpolation-filters="sRGB">
<feFlood flood-opacity="0" result="BackgroundImageFix"/>
<feBlend mode="normal" in="SourceGraphic" in2="BackgroundImageFix" result="shape"/>
<feColorMatrix in="SourceAlpha" type="matrix" values="0 0 0 0 0 0 0 0 0 0 0 0 0 0 0 0 0 0 127 0" result="hardAlpha"/>
<feOffset dx="-1" dy="1"/>
<feGaussianBlur stdDeviation="0.5"/>
<feComposite in2="hardAlpha" operator="arithmetic" k2="-1" k3="1"/>
<feColorMatrix type="matrix" values="0 0 0 0 0.829167 0 0 0 0 0.63372 0 0 0 0 0.487135 0 0 0 0.5 0"/>
<feBlend mode="normal" in2="shape" result="effect1_innerShadow"/>
</filter>
<filter id="filter2_i" x="74.7671" y="36.3279" width="47.7204" height="47.3156" filterUnits="userSpaceOnUse" color-interpolation-filters="sRGB">
<feFlood flood-opacity="0" result="BackgroundImageFix"/>
<feBlend mode="normal" in="SourceGraphic" in2="BackgroundImageFix" result="shape"/>
<feColorMatrix in="SourceAlpha" type="matrix" values="0 0 0 0 0 0 0 0 0 0 0 0 0 0 0 0 0 0 127 0" result="hardAlpha"/>
<feOffset dx="1" dy="1"/>
<feGaussianBlur stdDeviation="0.5"/>
<feComposite in2="hardAlpha" operator="arithmetic" k2="-1" k3="1"/>
<feColorMatrix type="matrix" values="0 0 0 0 0.7625 0 0 0 0 0.573691 0 0 0 0 0.432083 0 0 0 0.5 0"/>
<feBlend mode="normal" in2="shape" result="effect1_innerShadow"/>
</filter>
<filter id="filter3_i" x="36.355" y="105.474" width="60.653" height="18.2967" filterUnits="userSpaceOnUse" color-interpolation-filters="sRGB">
<feFlood flood-opacity="0" result="BackgroundImageFix"/>
<feBlend mode="normal" in="SourceGraphic" in2="BackgroundImageFix" result="shape"/>
<feColorMatrix in="SourceAlpha" type="matrix" values="0 0 0 0 0 0 0 0 0 0 0 0 0 0 0 0 0 0 127 0" result="hardAlpha"/>
<feOffset/>
<feGaussianBlur stdDeviation="0.5"/>
<feComposite in2="hardAlpha" operator="arithmetic" k2="-1" k3="1"/>
<feColorMatrix type="matrix" values="0 0 0 0 0.695833 0 0 0 0 0.513591 0 0 0 0 0.37691 0 0 0 0.5 0"/>
<feBlend mode="normal" in2="shape" result="effect1_innerShadow"/>
</filter>
</defs>
</svg>
