<svg width="28" height="28" viewBox="0 0 28 28" fill="none" xmlns="http://www.w3.org/2000/svg">
<path fill-rule="evenodd" clip-rule="evenodd" d="M20.0676 0H7.931C3.1744 0 0 3.40563 0 8.2824V19.7176C0 24.599 3.16592 28 7.931 28H20.0662C24.8327 28 28 24.5989 28 19.7176V8.2824C28 3.40131 24.8329 0 20.0676 0ZM7.931 2.1H20.0676C23.6383 2.1 25.9 4.52895 25.9 8.2824V19.7176C25.9 23.4712 23.6381 25.9 20.0662 25.9H7.931C4.36066 25.9 2.1 23.4714 2.1 19.7176V8.2824C2.1 4.53372 4.36847 2.1 7.931 2.1ZM19.7257 9.93539C19.3156 9.52534 18.6508 9.52534 18.2408 9.93539L12.3376 15.8366L9.75754 13.2574L9.63975 13.1558C9.22863 12.8509 8.64531 12.8849 8.27262 13.2577C7.86265 13.6679 7.86279 14.3327 8.27293 14.7427L11.5965 18.0649L11.7143 18.1665C12.1254 18.4714 12.7086 18.4374 13.0813 18.0647L19.7257 11.4203L19.8274 11.3025C20.1324 10.8915 20.0985 10.3082 19.7257 9.93539Z" fill="white"/>
</svg>
