<svg width="28" height="28" viewBox="0 0 28 28" fill="none" xmlns="http://www.w3.org/2000/svg">
<path fill-rule="evenodd" clip-rule="evenodd" d="M20.0676 0H7.931C3.1744 0 0 3.40563 0 8.2824V19.7176C0 24.599 3.16592 28 7.931 28H20.0662C24.8327 28 28 24.5989 28 19.7176V8.2824C28 3.40131 24.8329 0 20.0676 0ZM7.931 2.1H20.0676C23.6383 2.1 25.9 4.52895 25.9 8.2824V19.7176C25.9 23.4712 23.6381 25.9 20.0662 25.9H7.931C4.36066 25.9 2.1 23.4714 2.1 19.7176V8.2824C2.1 4.53372 4.36847 2.1 7.931 2.1ZM9.89844 9.88709C10.2712 9.51435 10.8546 9.48053 11.2656 9.78556L11.3834 9.88724L13.9982 12.5026L16.6106 9.89015C17.0206 9.4801 17.6854 9.4801 18.0955 9.89015C18.4683 10.2629 18.5022 10.8463 18.1972 11.2573L18.0955 11.3751L15.4829 13.9877L18.0978 16.603C18.5078 17.0131 18.5077 17.678 18.0976 18.088C17.7248 18.4607 17.1415 18.4945 16.7304 18.1895L16.6127 18.0878L13.998 15.4726L11.3867 18.0839C10.9767 18.4939 10.3118 18.4939 9.90178 18.0839C9.529 17.7111 9.49511 17.1278 9.80011 16.7167L9.90178 16.599L12.5132 13.9875L9.89828 11.372C9.48827 10.9619 9.48834 10.2971 9.89844 9.88709Z" fill="white"/>
</svg>
