<svg width="24" height="23" viewBox="0 0 24 23" fill="none" xmlns="http://www.w3.org/2000/svg">
<path d="M23.8749 6.56545C23.5959 5.58574 22.943 4.75498 22.0569 4.25245L14.6829 0.739446C13.8857 0.26327 12.9761 0.00809884 12.0475 0.000189627C11.119 -0.00771958 10.2051 0.231919 9.39991 0.694446L1.94291 4.25245C1.91439 4.26646 1.88637 4.28147 1.85891 4.29745C1.28711 4.62439 0.813209 5.09839 0.486391 5.67027C0.159573 6.24215 -0.00825816 6.89106 0.000312565 7.54968C0.00888329 8.2083 0.193543 8.85262 0.535132 9.4158C0.876721 9.97898 1.36279 10.4405 1.94291 10.7524L3.99991 11.7324V16.6324C4.0005 17.7 4.34227 18.7394 4.97534 19.5989C5.6084 20.4585 6.49962 21.0932 7.51891 21.4104C8.97479 21.8316 10.4844 22.0378 11.9999 22.0224C13.5152 22.0394 15.0248 21.8349 16.4809 21.4154C17.5002 21.0982 18.3914 20.4635 19.0245 19.6039C19.6575 18.7444 19.9993 17.705 19.9999 16.6374V11.7304L21.9999 10.7744V19.0224C21.9999 19.2877 22.1053 19.542 22.2928 19.7296C22.4803 19.9171 22.7347 20.0224 22.9999 20.0224C23.2651 20.0224 23.5195 19.9171 23.707 19.7296C23.8946 19.542 23.9999 19.2877 23.9999 19.0224V7.02245C23.9967 6.86212 23.9537 6.70511 23.8749 6.56545ZM17.9999 16.6374C18.0002 17.276 17.7966 17.8981 17.4189 18.413C17.0412 18.9279 16.5091 19.3089 15.8999 19.5004C14.6321 19.8627 13.3183 20.0385 11.9999 20.0224C10.6815 20.0385 9.36771 19.8627 8.09991 19.5004C7.49073 19.3089 6.95858 18.9279 6.58088 18.413C6.20319 17.8981 5.99966 17.276 5.99991 16.6374V12.6854L9.31691 14.2654C10.1353 14.7515 11.0701 15.0068 12.0219 15.0044C12.9279 15.0109 13.8187 14.771 14.5989 14.3104L17.9999 12.6854V16.6374ZM21.1999 8.94745L13.6579 12.5474C13.1418 12.8479 12.5538 13.0025 11.9567 12.9946C11.3596 12.9866 10.7758 12.8165 10.2679 12.5024L2.88891 8.99245C2.62331 8.84922 2.40084 8.63758 2.24456 8.37944C2.08829 8.1213 2.00389 7.82607 2.00011 7.52433C1.99634 7.2226 2.07333 6.92534 2.2231 6.66338C2.37287 6.40141 2.58997 6.18427 2.85191 6.03445L10.3469 2.45445C10.8632 2.15458 11.4511 2.0004 12.0481 2.00832C12.6451 2.01625 13.2288 2.18598 13.7369 2.49945L21.1109 6.01245C21.3773 6.16037 21.5998 6.37611 21.756 6.63778C21.9121 6.89945 21.9963 7.19776 21.9999 7.50245C22.0004 7.79144 21.9272 8.07579 21.7872 8.32863C21.6472 8.58147 21.4451 8.79445 21.1999 8.94745Z" fill="url(#paint0_linear)"/>
<defs>
<linearGradient id="paint0_linear" x1="49.0211" y1="-3.0458" x2="11.0447" y2="29.1812" gradientUnits="userSpaceOnUse">
<stop stop-color="#FF8820"/>
<stop offset="0.744792" stop-color="#FF7B2C"/>
<stop offset="1" stop-color="#FF386A"/>
</linearGradient>
</defs>
</svg>
