<svg width="24" height="22" viewBox="0 0 24 22" fill="none" xmlns="http://www.w3.org/2000/svg">
<path fill-rule="evenodd" clip-rule="evenodd" d="M11.5056 0H12.1972L12.2486 0.00533623C12.9772 0.0809078 13.6213 0.517494 13.9584 1.17215L13.9618 1.17869L16.2972 5.88329C16.3199 5.92961 16.3652 5.9643 16.4196 5.97336L21.6296 6.72917C21.6301 6.72924 21.6305 6.7293 21.631 6.72937C22.4426 6.84582 23.1198 7.40606 23.3882 8.17827L23.3912 8.1871L23.3941 8.19599C23.6522 8.98583 23.4296 9.85185 22.8253 10.4203C22.8247 10.4209 22.824 10.4215 22.8234 10.4221L18.9064 14.1297C18.8735 14.1629 18.8568 14.2114 18.8637 14.2604L19.7951 19.4153C19.9427 20.2357 19.5989 21.0655 18.9179 21.5421C18.2489 22.0248 17.3664 22.0801 16.6435 21.6953L11.9904 19.2684C11.9712 19.2582 11.9463 19.2502 11.9156 19.2482H11.7939L7.17312 21.6692L7.16546 21.673C6.74938 21.882 6.27668 21.9567 5.81275 21.8823L5.799 21.8801L5.78532 21.8775C4.6305 21.659 3.86082 20.5593 4.04987 19.3996L4.05126 19.3911L4.98512 14.2286C4.99263 14.1743 4.97444 14.12 4.93625 14.0815L1.14927 10.4109C0.555104 9.83446 0.345972 8.96646 0.616918 8.18211C0.87741 7.417 1.53986 6.85732 2.3407 6.73128L2.35259 6.72941L7.59084 5.96957L7.61136 5.96745C7.66635 5.96178 7.71597 5.92843 7.7422 5.87802L10.0439 1.15898L10.0498 1.14757C10.1504 0.954141 10.2841 0.76815 10.4534 0.605137L10.4914 0.568519L10.5737 0.504491C10.6767 0.404156 10.789 0.320356 10.9067 0.251706L10.983 0.207159L11.1622 0.141407L11.5056 0ZM11.8277 2.06402L9.53234 6.77004C9.20481 7.42509 8.56824 7.87114 7.84026 7.95432L2.64831 8.70752C2.58478 8.71875 2.5315 8.76375 2.51008 8.82705L2.50743 8.83487C2.49069 8.88302 2.5026 8.93722 2.54145 8.97501C2.5415 8.97506 2.54141 8.97497 2.54145 8.97501L6.33791 12.6548C6.84146 13.1505 7.07258 13.86 6.95798 14.5574L6.95667 14.5653L6.0231 19.7262C6.01189 19.8097 6.06473 19.8878 6.14436 19.9094C6.18438 19.9131 6.22522 19.9061 6.26307 19.8881L10.8969 17.4603C11.0909 17.3556 11.2976 17.2898 11.5037 17.2591L11.5769 17.2482H11.9498L11.964 17.2486C12.2951 17.2581 12.6248 17.3412 12.926 17.5007L17.5828 19.9295C17.6381 19.9592 17.7024 19.9533 17.7485 19.9196L17.7593 19.9117L17.7704 19.9041C17.8148 19.8734 17.8359 19.8211 17.8269 19.7704C17.8269 19.7703 17.8269 19.7705 17.8269 19.7704L16.8924 14.5984L16.8912 14.5912C16.7758 13.8952 17.0081 13.1842 17.5167 12.6913L17.5251 12.6831L21.4517 8.9666L21.4548 8.96362C21.4936 8.92729 21.5082 8.87451 21.4955 8.82551C21.4701 8.76309 21.4132 8.71856 21.3468 8.70907L21.3446 8.70876L16.1189 7.95067C15.4216 7.84384 14.8156 7.40335 14.5022 6.76527L12.1784 2.08409C12.1561 2.04327 12.1177 2.01263 12.071 2H11.9086L11.8289 2.06199C11.8285 2.06265 11.8281 2.06332 11.8277 2.06402Z" fill="url(#paint0_linear)"/>
<defs>
<linearGradient id="paint0_linear" x1="47.4788" y1="-3.03546" x2="9.89946" y2="27.63" gradientUnits="userSpaceOnUse">
<stop stop-color="#FF8820"/>
<stop offset="0.744792" stop-color="#FF7B2C"/>
<stop offset="1" stop-color="#FF386A"/>
</linearGradient>
</defs>
</svg>
