<svg width="22" height="17" viewBox="0 0 22 17" fill="none" xmlns="http://www.w3.org/2000/svg">
<path fill-rule="evenodd" clip-rule="evenodd" d="M10.9954 1C8.6732 1 6.80795 2.86526 6.80795 5.18744C6.80795 7.51031 8.67305 9.37572 10.9954 9.37572C13.3177 9.37572 15.1828 7.51031 15.1828 5.18744C15.1828 2.86526 13.3176 1 10.9954 1ZM10.9957 2.36303C12.5651 2.36303 13.8201 3.61804 13.8201 5.18744C13.8201 6.75758 12.5652 8.01269 10.9957 8.01269C9.42621 8.01269 8.1713 6.75758 8.1713 5.18744C8.1713 3.61804 9.42631 2.36303 10.9957 2.36303ZM5.86361 1.85588C6.23999 1.85588 6.54512 2.16101 6.54512 2.5374C6.54512 2.91379 6.23999 3.21891 5.86361 3.21891C4.78375 3.21891 3.90797 4.09432 3.90797 5.17372C3.90797 6.25312 4.78375 7.12852 5.86361 7.12852C6.23999 7.12852 6.54512 7.43365 6.54512 7.81004C6.54512 8.18642 6.23999 8.49155 5.86361 8.49155C4.03111 8.49155 2.54494 7.00603 2.54494 5.17372C2.54494 3.3414 4.03111 1.85588 5.86361 1.85588ZM19.4548 5.17372C19.4548 3.3414 17.9687 1.85588 16.1362 1.85588C15.7598 1.85588 15.4546 2.16101 15.4546 2.5374C15.4546 2.91379 15.7598 3.21891 16.1362 3.21891C17.216 3.21891 18.0918 4.09432 18.0918 5.17372C18.0918 6.25312 17.216 7.12852 16.1362 7.12852C15.7598 7.12852 15.4546 7.43365 15.4546 7.81004C15.4546 8.18642 15.7598 8.49155 16.1362 8.49155C17.9687 8.49155 19.4548 7.00603 19.4548 5.17372ZM18.772 10.1938C18.3357 10.0953 17.8694 10.028 17.3952 9.99531C17.0197 9.96941 16.6944 10.2528 16.6685 10.6283C16.6426 11.0038 16.926 11.3292 17.3015 11.3551C17.7072 11.3831 18.1048 11.4405 18.4915 11.5275C19.0927 11.6455 19.4847 11.8411 19.582 12.0449C19.6552 12.1988 19.6552 12.3798 19.5813 12.5355C19.4853 12.7373 19.0966 12.9319 18.5038 13.0538C18.1352 13.1296 17.8977 13.4899 17.9736 13.8586C18.0494 14.2273 18.4097 14.4647 18.7784 14.3889C19.7581 14.1874 20.4758 13.8282 20.8125 13.1203C21.0621 12.594 21.0621 11.9837 20.8126 11.4587C20.4735 10.7482 19.7434 10.384 18.772 10.1938ZM5.33119 10.6283C5.30529 10.2528 4.9799 9.96941 4.6044 9.99531C4.13026 10.028 3.66395 10.0953 3.20891 10.1977L3.02131 10.2374C2.16022 10.4342 1.50329 10.7957 1.18797 11.4586C0.937301 11.9831 0.937301 12.5946 1.18823 13.1209C1.52347 13.828 2.24112 14.1873 3.22127 14.3889C3.58994 14.4647 3.95027 14.2273 4.02608 13.8586C4.1019 13.4899 3.86448 13.1296 3.49581 13.0538C2.90327 12.9319 2.51492 12.7375 2.41921 12.5356C2.34465 12.3792 2.34465 12.1994 2.41829 12.0453C2.51551 11.8409 2.90712 11.6454 3.48948 11.5314L3.79227 11.4695C4.09412 11.4136 4.39387 11.3761 4.69818 11.3551C5.07368 11.3292 5.35709 11.0038 5.33119 10.6283ZM4.84327 13.4917C4.84327 11.3236 7.08585 10.5611 10.9957 10.5611L11.2727 10.5624C15.0191 10.5976 17.1481 11.3618 17.1481 13.4758C17.1481 15.5401 15.113 16.3305 11.5427 16.4011L10.9957 16.4063C7.07688 16.4063 4.84327 15.6573 4.84327 13.4917ZM15.7846 13.4759C15.7846 12.4668 14.1666 11.9243 10.9952 11.9243C7.82687 11.9243 6.20582 12.4754 6.20582 13.4918C6.20582 14.501 7.82326 15.0434 10.9952 15.0434C14.1625 15.0434 15.7846 14.4918 15.7846 13.4759Z" fill="url(#paint0_linear)"/>
<path d="M17.3952 9.99531L17.4056 9.84566L17.4056 9.84566L17.3952 9.99531ZM18.772 10.1938L18.739 10.3402L18.7432 10.341L18.772 10.1938ZM16.6685 10.6283L16.5188 10.618L16.5188 10.618L16.6685 10.6283ZM17.3015 11.3551L17.2911 11.5047L17.2911 11.5047L17.3015 11.3551ZM18.4915 11.5275L18.4585 11.6739L18.4626 11.6747L18.4915 11.5275ZM19.582 12.0449L19.7175 11.9805L19.7174 11.9803L19.582 12.0449ZM19.5813 12.5355L19.7168 12.5999L19.7168 12.5998L19.5813 12.5355ZM18.5038 13.0538L18.534 13.2007L18.534 13.2007L18.5038 13.0538ZM17.9736 13.8586L17.8266 13.8888L17.8266 13.8888L17.9736 13.8586ZM18.7784 14.3889L18.8086 14.5358L18.8086 14.5358L18.7784 14.3889ZM20.8125 13.1203L20.948 13.1847L20.948 13.1846L20.8125 13.1203ZM20.8126 11.4587L20.948 11.3943L20.9479 11.3941L20.8126 11.4587ZM4.6044 9.99531L4.59408 9.84566L4.59408 9.84566L4.6044 9.99531ZM5.33119 10.6283L5.18155 10.6386L5.18155 10.6386L5.33119 10.6283ZM3.20891 10.1977L3.23996 10.3445L3.24184 10.3441L3.20891 10.1977ZM3.02131 10.2374L2.99026 10.0907L2.9879 10.0912L3.02131 10.2374ZM1.18797 11.4586L1.3233 11.5233L1.32342 11.5231L1.18797 11.4586ZM1.18823 13.1209L1.32377 13.0566L1.32363 13.0563L1.18823 13.1209ZM3.22127 14.3889L3.19106 14.5358L3.19106 14.5358L3.22127 14.3889ZM4.02608 13.8586L4.17301 13.8888L4.17301 13.8888L4.02608 13.8586ZM3.49581 13.0538L3.4656 13.2007L3.4656 13.2007L3.49581 13.0538ZM2.41921 12.5356L2.55475 12.4714L2.55461 12.4711L2.41921 12.5356ZM2.41829 12.0453L2.55363 12.11L2.55375 12.1097L2.41829 12.0453ZM3.48948 11.5314L3.5183 11.6786L3.51956 11.6784L3.48948 11.5314ZM3.79227 11.4695L3.76499 11.3219L3.76219 11.3225L3.79227 11.4695ZM4.69818 11.3551L4.7085 11.5047L4.7085 11.5047L4.69818 11.3551ZM10.9957 10.5611L10.9964 10.4111H10.9957V10.5611ZM11.2727 10.5624L11.2741 10.4124L11.2734 10.4124L11.2727 10.5624ZM11.5427 16.4011L11.5441 16.5511L11.5456 16.551L11.5427 16.4011ZM10.9957 16.4063L10.9957 16.5563L10.9971 16.5563L10.9957 16.4063ZM6.95795 5.18744C6.95795 2.9481 8.75605 1.15 10.9954 1.15V0.85C8.59036 0.85 6.65795 2.78242 6.65795 5.18744H6.95795ZM10.9954 9.22572C8.75592 9.22572 6.95795 7.42749 6.95795 5.18744H6.65795C6.65795 7.59312 8.59018 9.52572 10.9954 9.52572V9.22572ZM15.0328 5.18744C15.0328 7.42749 13.2349 9.22572 10.9954 9.22572V9.52572C13.4006 9.52572 15.3328 7.59312 15.3328 5.18744H15.0328ZM10.9954 1.15C13.2347 1.15 15.0328 2.9481 15.0328 5.18744H15.3328C15.3328 2.78242 13.4004 0.85 10.9954 0.85V1.15ZM13.9701 5.18744C13.9701 3.53519 12.648 2.21303 10.9957 2.21303V2.51303C12.4823 2.51303 13.6701 3.70088 13.6701 5.18744H13.9701ZM10.9957 8.16269C12.6481 8.16269 13.9701 6.84039 13.9701 5.18744H13.6701C13.6701 6.67477 12.4823 7.86269 10.9957 7.86269V8.16269ZM8.0213 5.18744C8.0213 6.84039 9.34333 8.16269 10.9957 8.16269V7.86269C9.50909 7.86269 8.3213 6.67477 8.3213 5.18744H8.0213ZM10.9957 2.21303C9.34347 2.21303 8.0213 3.53519 8.0213 5.18744H8.3213C8.3213 3.70088 9.50915 2.51303 10.9957 2.51303V2.21303ZM6.69512 2.5374C6.69512 2.07817 6.32284 1.70588 5.86361 1.70588V2.00588C6.15715 2.00588 6.39512 2.24385 6.39512 2.5374H6.69512ZM5.86361 3.36891C6.32284 3.36891 6.69512 2.99663 6.69512 2.5374H6.39512C6.39512 2.83094 6.15715 3.06891 5.86361 3.06891V3.36891ZM4.05797 5.17372C4.05797 4.17722 4.86654 3.36891 5.86361 3.36891V3.06891C4.70097 3.06891 3.75797 4.01141 3.75797 5.17372H4.05797ZM5.86361 6.97852C4.86654 6.97852 4.05797 6.17021 4.05797 5.17372H3.75797C3.75797 6.33602 4.70097 7.27852 5.86361 7.27852V6.97852ZM6.69512 7.81004C6.69512 7.3508 6.32284 6.97852 5.86361 6.97852V7.27852C6.15715 7.27852 6.39512 7.51649 6.39512 7.81004H6.69512ZM5.86361 8.64155C6.32284 8.64155 6.69512 8.26927 6.69512 7.81004H6.39512C6.39512 8.10358 6.15715 8.34155 5.86361 8.34155V8.64155ZM2.39494 5.17372C2.39494 7.08891 3.94831 8.64155 5.86361 8.64155V8.34155C4.11391 8.34155 2.69494 6.92314 2.69494 5.17372H2.39494ZM5.86361 1.70588C3.94831 1.70588 2.39494 3.25852 2.39494 5.17372H2.69494C2.69494 3.42429 4.11391 2.00588 5.86361 2.00588V1.70588ZM16.1362 2.00588C17.8859 2.00588 19.3048 3.42429 19.3048 5.17372H19.6048C19.6048 3.25852 18.0514 1.70588 16.1362 1.70588V2.00588ZM15.6046 2.5374C15.6046 2.24385 15.8426 2.00588 16.1362 2.00588V1.70588C15.6769 1.70588 15.3046 2.07817 15.3046 2.5374H15.6046ZM16.1362 3.06891C15.8426 3.06891 15.6046 2.83094 15.6046 2.5374H15.3046C15.3046 2.99663 15.6769 3.36891 16.1362 3.36891V3.06891ZM18.2418 5.17372C18.2418 4.01141 17.2988 3.06891 16.1362 3.06891V3.36891C17.1332 3.36891 17.9418 4.17722 17.9418 5.17372H18.2418ZM16.1362 7.27852C17.2988 7.27852 18.2418 6.33602 18.2418 5.17372H17.9418C17.9418 6.17021 17.1332 6.97852 16.1362 6.97852V7.27852ZM15.6046 7.81004C15.6046 7.51649 15.8426 7.27852 16.1362 7.27852V6.97852C15.6769 6.97852 15.3046 7.3508 15.3046 7.81004H15.6046ZM16.1362 8.34155C15.8426 8.34155 15.6046 8.10358 15.6046 7.81004H15.3046C15.3046 8.26927 15.6769 8.64155 16.1362 8.64155V8.34155ZM19.3048 5.17372C19.3048 6.92314 17.8859 8.34155 16.1362 8.34155V8.64155C18.0514 8.64155 19.6048 7.08891 19.6048 5.17372H19.3048ZM17.3849 10.145C17.8519 10.1772 18.3106 10.2434 18.739 10.3401L18.8051 10.0475C18.3608 9.94723 17.8869 9.87886 17.4056 9.84566L17.3849 10.145ZM16.8181 10.6386C16.8383 10.3458 17.0921 10.1248 17.3849 10.145L17.4056 9.84566C16.9474 9.81407 16.5504 10.1599 16.5188 10.618L16.8181 10.6386ZM17.3118 11.2055C17.0189 11.1853 16.7979 10.9315 16.8181 10.6386L16.5188 10.618C16.4872 11.0761 16.833 11.4732 17.2911 11.5047L17.3118 11.2055ZM18.5244 11.3812C18.1301 11.2924 17.7249 11.2339 17.3118 11.2055L17.2911 11.5047C17.6896 11.5322 18.0796 11.5886 18.4585 11.6738L18.5244 11.3812ZM19.7174 11.9803C19.6461 11.8308 19.4845 11.712 19.2907 11.6188C19.0906 11.5226 18.8292 11.4409 18.5204 11.3803L18.4626 11.6747C18.755 11.7321 18.9903 11.8072 19.1607 11.8892C19.3375 11.9742 19.4207 12.0551 19.4466 12.1095L19.7174 11.9803ZM19.7168 12.5998C19.8099 12.4036 19.8102 12.1754 19.7175 11.9805L19.4465 12.1093C19.5002 12.2222 19.5005 12.3559 19.4458 12.4712L19.7168 12.5998ZM18.534 13.2007C18.8384 13.1381 19.0966 13.0557 19.2944 12.9595C19.4858 12.8665 19.6462 12.7484 19.7168 12.5999L19.4459 12.4711C19.4205 12.5245 19.3384 12.6046 19.1633 12.6897C18.9946 12.7717 18.762 12.8476 18.4736 12.9069L18.534 13.2007ZM18.1205 13.8284C18.0614 13.5409 18.2465 13.2598 18.534 13.2007L18.4736 12.9069C18.0238 12.9994 17.7341 13.439 17.8266 13.8888L18.1205 13.8284ZM18.7482 14.242C18.4606 14.3011 18.1796 14.1159 18.1205 13.8284L17.8266 13.8888C17.9191 14.3386 18.3588 14.6283 18.8086 14.5358L18.7482 14.242ZM20.6771 13.0559C20.3714 13.6984 19.7141 14.0433 18.7482 14.242L18.8086 14.5358C19.8022 14.3315 20.5802 13.9579 20.948 13.1847L20.6771 13.0559ZM20.6771 11.5231C20.9073 12.0073 20.9073 12.5704 20.677 13.056L20.948 13.1846C21.2169 12.6177 21.217 11.9601 20.948 11.3943L20.6771 11.5231ZM18.7432 10.341C19.6996 10.5282 20.3693 10.8781 20.6772 11.5233L20.9479 11.3941C20.5777 10.6183 19.7872 10.2397 18.8009 10.0466L18.7432 10.341ZM4.61472 10.145C4.90757 10.1248 5.16135 10.3458 5.18155 10.6386L5.48083 10.618C5.44924 10.1599 5.05223 9.81407 4.59408 9.84566L4.61472 10.145ZM3.24184 10.3441C3.68921 10.2434 4.14795 10.1771 4.61472 10.145L4.59408 9.84566C4.11258 9.87887 3.6387 9.94726 3.17597 10.0514L3.24184 10.3441ZM3.05236 10.3842L3.23995 10.3445L3.17786 10.051L2.99027 10.0907L3.05236 10.3842ZM1.32342 11.5231C1.60978 10.9211 2.21201 10.5762 3.05472 10.3837L2.9879 10.0912C2.10844 10.2921 1.3968 10.6704 1.05251 11.3942L1.32342 11.5231ZM1.32363 13.0563C1.09213 12.5708 1.09222 12.0068 1.3233 11.5233L1.05263 11.394C0.782378 11.9594 0.782469 12.6184 1.05283 13.1854L1.32363 13.0563ZM3.25148 14.242C2.28506 14.0432 1.62795 13.6982 1.32377 13.0566L1.05269 13.1851C1.41898 13.9577 2.19718 14.3314 3.19106 14.5358L3.25148 14.242ZM3.87916 13.8284C3.82003 14.1159 3.53901 14.3011 3.25148 14.242L3.19106 14.5358C3.64088 14.6283 4.08051 14.3386 4.17301 13.8888L3.87916 13.8284ZM3.4656 13.2007C3.75313 13.2598 3.93828 13.5409 3.87916 13.8284L4.17301 13.8888C4.26551 13.439 3.97584 12.9994 3.52602 12.9069L3.4656 13.2007ZM2.28367 12.5999C2.35411 12.7484 2.51433 12.8666 2.70558 12.9596C2.90331 13.0558 3.16136 13.1382 3.4656 13.2007L3.52602 12.9069C3.23772 12.8476 3.00532 12.7718 2.83681 12.6898C2.66183 12.6047 2.58002 12.5247 2.55475 12.4714L2.28367 12.5999ZM2.28296 11.9806C2.1896 12.1759 2.18994 12.4033 2.28381 12.6002L2.55461 12.4711C2.49936 12.3552 2.49969 12.2228 2.55363 12.11L2.28296 11.9806ZM3.46066 11.3842C3.16093 11.4429 2.90426 11.5236 2.70651 11.6195C2.51514 11.7123 2.35399 11.8313 2.28284 11.9808L2.55375 12.1097C2.57982 12.0549 2.66307 11.974 2.8374 11.8894C3.00536 11.808 3.23566 11.734 3.51829 11.6786L3.46066 11.3842ZM3.76219 11.3225L3.45939 11.3845L3.51956 11.6784L3.82236 11.6164L3.76219 11.3225ZM4.68786 11.2055C4.37797 11.2268 4.07256 11.2651 3.765 11.322L3.81955 11.617C4.11569 11.5622 4.40977 11.5253 4.7085 11.5047L4.68786 11.2055ZM5.18155 10.6386C5.20174 10.9315 4.98071 11.1853 4.68786 11.2055L4.7085 11.5047C5.16665 11.4732 5.51243 11.0761 5.48083 10.618L5.18155 10.6386ZM10.9957 10.4111C9.03649 10.4111 7.47213 10.6013 6.39289 11.0761C5.85087 11.3145 5.42407 11.6278 5.13309 12.0314C4.84107 12.4364 4.69327 12.9223 4.69327 13.4917H4.99327C4.99327 12.977 5.12579 12.5545 5.37644 12.2068C5.62812 11.8577 6.00633 11.5739 6.51369 11.3507C7.53318 10.9022 9.04502 10.7111 10.9957 10.7111V10.4111ZM11.2734 10.4124L10.9964 10.4111L10.995 10.7111L11.272 10.7124L11.2734 10.4124ZM17.2981 13.4758C17.2981 12.9208 17.1578 12.4457 16.8798 12.0478C16.6027 11.6511 16.1957 11.3412 15.6779 11.1033C14.6472 10.6297 13.1517 10.4301 11.2741 10.4124L11.2713 10.7124C13.1401 10.73 14.5822 10.93 15.5527 11.3759C16.0354 11.5977 16.3948 11.8774 16.6339 12.2196C16.8722 12.5607 16.9981 12.9739 16.9981 13.4758H17.2981ZM11.5456 16.551C13.3359 16.5156 14.7644 16.3002 15.7498 15.821C16.245 15.5802 16.6339 15.2701 16.8986 14.8777C17.1641 14.4843 17.2981 14.0178 17.2981 13.4758H16.9981C16.9981 13.966 16.8777 14.3724 16.65 14.7099C16.4215 15.0485 16.0786 15.3275 15.6186 15.5512C14.6939 16.0009 13.3197 16.2159 11.5397 16.2511L11.5456 16.551ZM10.9971 16.5563L11.5441 16.5511L11.5412 16.2511L10.9942 16.2563L10.9971 16.5563ZM4.69327 13.4917C4.69327 14.0603 4.84047 14.545 5.1319 14.9485C5.42229 15.3506 5.84839 15.662 6.38987 15.8986C7.46796 16.3696 9.03228 16.5563 10.9957 16.5563V16.2563C9.04027 16.2563 7.52839 16.0686 6.50998 15.6237C6.00321 15.4023 5.62598 15.1203 5.37511 14.7729C5.12528 14.4269 4.99327 14.0058 4.99327 13.4917H4.69327ZM10.9952 12.0743C12.576 12.0743 13.7544 12.2099 14.5326 12.4643C15.3189 12.7213 15.6346 13.0749 15.6346 13.4759H15.9346C15.9346 12.8679 15.4412 12.4456 14.6258 12.1791C13.8021 11.9099 12.5858 11.7743 10.9952 11.7743V12.0743ZM6.35582 13.4918C6.35582 13.0864 6.67328 12.7291 7.45946 12.4693C8.23785 12.2121 9.41611 12.0743 10.9952 12.0743V11.7743C9.40595 11.7743 8.18952 11.9121 7.36532 12.1845C6.54889 12.4543 6.05582 12.8808 6.05582 13.4918H6.35582ZM10.9952 14.8934C9.41415 14.8934 8.23574 14.7578 7.45763 14.5035C6.67138 14.2465 6.35582 13.8929 6.35582 13.4918H6.05582C6.05582 14.0999 6.54898 14.5221 7.36443 14.7886C8.18803 15.0578 9.4043 15.1934 10.9952 15.1934V14.8934ZM15.6346 13.4759C15.6346 13.881 15.3169 14.2383 14.5306 14.4982C13.752 14.7555 12.5738 14.8934 10.9952 14.8934V15.1934C12.584 15.1934 13.8004 15.0555 14.6247 14.783C15.4412 14.5132 15.9346 14.0867 15.9346 13.4759H15.6346Z" fill="url(#paint1_linear)"/>
<defs>
<linearGradient id="paint0_linear" x1="41.8505" y1="-1.13066" x2="14.9272" y2="26.086" gradientUnits="userSpaceOnUse">
<stop stop-color="#FF8820"/>
<stop offset="0.744792" stop-color="#FF7B2C"/>
<stop offset="1" stop-color="#FF386A"/>
</linearGradient>
<linearGradient id="paint1_linear" x1="41.8505" y1="-1.13066" x2="14.9272" y2="26.086" gradientUnits="userSpaceOnUse">
<stop stop-color="#FF8820"/>
<stop offset="0.744792" stop-color="#FF7B2C"/>
<stop offset="1" stop-color="#FF386A"/>
</linearGradient>
</defs>
</svg>
