<svg width="20" height="19" viewBox="0 0 20 19" fill="none" xmlns="http://www.w3.org/2000/svg">
<path fill-rule="evenodd" clip-rule="evenodd" d="M1.96867 11.4157L11.6592 1.91662C12.906 0.694461 14.9283 0.694461 16.175 1.91662L17.4694 3.1854C18.7162 4.40755 18.7162 6.38985 17.4694 7.612L7.74061 17.1486C7.1843 17.6939 6.43007 17.9999 5.64282 17.9999H1.65854C1.28841 17.9999 0.990985 17.701 1.00021 17.3383L1.10043 13.3975C1.12036 12.6526 1.43127 11.9425 1.96867 11.4157ZM16.5381 4.09831L15.2437 2.82953C14.5113 2.11156 13.323 2.11156 12.5905 2.82953L11.8382 3.56697L15.7862 7.43612L16.5381 6.69909C17.2705 5.98112 17.2705 4.81628 16.5381 4.09831ZM2.89998 12.3287L10.9069 4.47989L14.8549 8.34903L6.8093 16.2357L6.70228 16.3317C6.4067 16.5745 6.03222 16.7088 5.64282 16.7088L2.33345 16.7084L2.41707 13.4305C2.42814 13.0169 2.60126 12.6215 2.89998 12.3287ZM19 17.3545C19 16.998 18.7052 16.7089 18.3415 16.7089H11.471L11.3816 16.7148C11.0602 16.7576 10.8125 17.0277 10.8125 17.3545C10.8125 17.711 11.1073 18 11.471 18H18.3415L18.4308 17.9941C18.7523 17.9514 19 17.6813 19 17.3545Z" fill="url(#paint0_linear)"/>
<path d="M11.6592 1.91662L11.5192 1.77379L11.5192 1.77379L11.6592 1.91662ZM1.96867 11.4157L1.82866 11.2729L1.82866 11.2729L1.96867 11.4157ZM16.175 1.91662L16.035 2.05944L16.035 2.05944L16.175 1.91662ZM17.4694 3.1854L17.6094 3.04257L17.6094 3.04257L17.4694 3.1854ZM17.4694 7.612L17.6094 7.75483L17.6094 7.75483L17.4694 7.612ZM7.74061 17.1486L7.6006 17.0058L7.6006 17.0058L7.74061 17.1486ZM1.00021 17.3383L0.800274 17.3332L0.800274 17.3332L1.00021 17.3383ZM1.10043 13.3975L0.900503 13.3921L0.900496 13.3924L1.10043 13.3975ZM15.2437 2.82953L15.3837 2.68671L15.3837 2.68671L15.2437 2.82953ZM16.5381 4.09831L16.3981 4.24113L16.3981 4.24113L16.5381 4.09831ZM12.5905 2.82953L12.4505 2.68671L12.4505 2.68671L12.5905 2.82953ZM11.8382 3.56697L11.6982 3.42415L11.5525 3.56699L11.6982 3.70981L11.8382 3.56697ZM15.7862 7.43612L15.6462 7.57896L15.7862 7.71617L15.9262 7.57895L15.7862 7.43612ZM16.5381 6.69909L16.3981 6.55626L16.3981 6.55626L16.5381 6.69909ZM10.9069 4.47989L11.0469 4.33705L10.9069 4.19984L10.7669 4.33706L10.9069 4.47989ZM2.89998 12.3287L3.03998 12.4715L3.03998 12.4715L2.89998 12.3287ZM14.8549 8.34903L14.9949 8.49186L15.1406 8.34902L14.9949 8.20619L14.8549 8.34903ZM6.8093 16.2357L6.94302 16.3847L6.9493 16.3785L6.8093 16.2357ZM6.70228 16.3317L6.82933 16.4864L6.83587 16.4806L6.70228 16.3317ZM5.64282 16.7088L5.64279 16.9088H5.64282V16.7088ZM2.33345 16.7084L2.13352 16.7033L2.12828 16.9084L2.33342 16.9084L2.33345 16.7084ZM2.41707 13.4305L2.21714 13.4251L2.21714 13.4254L2.41707 13.4305ZM11.471 16.7089V16.5085L11.4578 16.5094L11.471 16.7089ZM11.3816 16.7148L11.3684 16.5148L11.3553 16.5166L11.3816 16.7148ZM18.3415 18V18.2004L18.3546 18.1996L18.3415 18ZM18.4308 17.9941L18.444 18.1941L18.4572 18.1924L18.4308 17.9941ZM11.5192 1.77379L1.82866 11.2729L2.10867 11.5586L11.7992 2.05944L11.5192 1.77379ZM16.315 1.77379C14.9905 0.475402 12.8438 0.475402 11.5192 1.77379L11.7992 2.05944C12.9682 0.913519 14.866 0.913519 16.035 2.05944L16.315 1.77379ZM17.6094 3.04257L16.315 1.77379L16.035 2.05944L17.3294 3.32822L17.6094 3.04257ZM17.6094 7.75483C18.9362 6.45426 18.9362 4.34314 17.6094 3.04257L17.3294 3.32822C18.4962 4.47196 18.4962 6.32544 17.3294 7.46918L17.6094 7.75483ZM7.88061 17.2914L17.6094 7.75483L17.3294 7.46918L7.6006 17.0058L7.88061 17.2914ZM5.64282 18.1999C6.48178 18.1999 7.28646 17.8738 7.88061 17.2914L7.6006 17.0058C7.08214 17.514 6.37836 17.7999 5.64282 17.7999V18.1999ZM1.65854 18.1999H5.64282V17.7999H1.65854V18.1999ZM0.800274 17.3332C0.788092 17.8122 1.17989 18.1999 1.65854 18.1999V17.7999C1.39694 17.7999 1.19388 17.5898 1.20014 17.3434L0.800274 17.3332ZM0.900496 13.3924L0.800274 17.3332L1.20014 17.3434L1.30037 13.4025L0.900496 13.3924ZM1.82866 11.2729C1.25459 11.8357 0.92183 12.5949 0.900503 13.3921L1.30036 13.4028C1.31888 12.7104 1.60795 12.0494 2.10867 11.5586L1.82866 11.2729ZM15.1037 2.97236L16.3981 4.24113L16.6781 3.95548L15.3837 2.68671L15.1037 2.97236ZM12.7305 2.97236C13.3852 2.33062 14.4491 2.33062 15.1037 2.97236L15.3837 2.68671C14.5735 1.8925 13.2607 1.8925 12.4505 2.68671L12.7305 2.97236ZM11.9782 3.7098L12.7305 2.97236L12.4505 2.68671L11.6982 3.42415L11.9782 3.7098ZM15.9262 7.29328L11.9782 3.42413L11.6982 3.70981L15.6462 7.57896L15.9262 7.29328ZM16.3981 6.55626L15.6462 7.2933L15.9262 7.57895L16.6781 6.84191L16.3981 6.55626ZM16.3981 4.24113C17.0505 4.88069 17.0505 5.91671 16.3981 6.55626L16.6781 6.84191C17.4905 6.04553 17.4905 4.75187 16.6781 3.95548L16.3981 4.24113ZM10.7669 4.33706L2.75997 12.1858L3.03998 12.4715L11.0469 4.62271L10.7669 4.33706ZM14.9949 8.20619L11.0469 4.33705L10.7669 4.62273L14.7149 8.49187L14.9949 8.20619ZM6.9493 16.3785L14.9949 8.49186L14.7149 8.20621L6.66929 16.0929L6.9493 16.3785ZM6.83587 16.4806L6.94289 16.3845L6.6757 16.0868L6.56869 16.1829L6.83587 16.4806ZM5.64282 16.9088C6.07819 16.9088 6.49761 16.7586 6.82921 16.4863L6.57535 16.1772C6.3158 16.3903 5.98625 16.5088 5.64282 16.5088V16.9088ZM2.33342 16.9084L5.64279 16.9088L5.64284 16.5088L2.33348 16.5084L2.33342 16.9084ZM2.21714 13.4254L2.13352 16.7033L2.53339 16.7135L2.61701 13.4356L2.21714 13.4254ZM2.75997 12.1858C2.4246 12.5146 2.22961 12.9591 2.21715 13.4251L2.617 13.4358C2.62666 13.0746 2.77792 12.7284 3.03998 12.4715L2.75997 12.1858ZM18.3415 16.9089C18.5985 16.9089 18.8 17.1122 18.8 17.3545H19.2C19.2 16.8838 18.8118 16.5089 18.3415 16.5089V16.9089ZM11.471 16.9089H18.3415V16.5089H11.471V16.9089ZM11.3948 16.9144L11.4842 16.9085L11.4578 16.5094L11.3685 16.5153L11.3948 16.9144ZM11.0125 17.3545C11.0125 17.1323 11.1816 16.9432 11.408 16.9131L11.3553 16.5166C10.9388 16.572 10.6125 16.923 10.6125 17.3545H11.0125ZM11.471 17.8C11.214 17.8 11.0125 17.5968 11.0125 17.3545H10.6125C10.6125 17.8252 11.0006 18.2 11.471 18.2V17.8ZM18.3415 17.8H11.471V18.2H18.3415V17.8ZM18.4177 17.7945L18.3283 17.8004L18.3546 18.1996L18.444 18.1937L18.4177 17.7945ZM18.8 17.3545C18.8 17.5766 18.6309 17.7657 18.4045 17.7959L18.4572 18.1924C18.8736 18.137 19.2 17.7859 19.2 17.3545H18.8Z" fill="url(#paint1_linear)"/>
<defs>
<linearGradient id="paint0_linear" x1="37.766" y1="-1.35107" x2="8.60044" y2="22.6967" gradientUnits="userSpaceOnUse">
<stop stop-color="#FF8820"/>
<stop offset="0.744792" stop-color="#FF7B2C"/>
<stop offset="1" stop-color="#FF386A"/>
</linearGradient>
<linearGradient id="paint1_linear" x1="37.766" y1="-1.35107" x2="8.60044" y2="22.6967" gradientUnits="userSpaceOnUse">
<stop stop-color="#FF8820"/>
<stop offset="0.744792" stop-color="#FF7B2C"/>
<stop offset="1" stop-color="#FF386A"/>
</linearGradient>
</defs>
</svg>
