<svg width="15" height="19" viewBox="0 0 15 19" fill="none" xmlns="http://www.w3.org/2000/svg">
<path fill-rule="evenodd" clip-rule="evenodd" d="M4.01647 5.02235C4.01647 3.35315 5.36962 2 7.03881 2C8.30563 2 9.39273 2.77971 9.84184 3.88918C10.0491 4.40111 10.6321 4.64813 11.144 4.4409C11.6559 4.23368 11.9029 3.65068 11.6957 3.13875C10.9514 1.30001 9.14812 0 7.03881 0C4.26505 0 2.01647 2.24858 2.01647 5.02235V7.03337H2C0.89543 7.03337 0 7.9288 0 9.03337V16.0948C0 17.1994 0.89543 18.0948 2 18.0948H12.0782C13.1828 18.0948 14.0782 17.1994 14.0782 16.0948V9.03337C14.0782 7.9288 13.1828 7.03337 12.0782 7.03337H4.01647V5.02235ZM2.90876 9.03337C2.94414 9.03716 2.98008 9.03911 3.01647 9.03911C3.05285 9.03911 3.08879 9.03716 3.12417 9.03337H12.0782L12.0782 16.0948L2 16.0948L2 9.03337H2.90876Z" fill="url(#paint0_linear)"/>
<defs>
<linearGradient id="paint0_linear" x1="28.7555" y1="-2.50248" x2="0.725502" y2="14.4798" gradientUnits="userSpaceOnUse">
<stop stop-color="#FF8820"/>
<stop offset="0.744792" stop-color="#FF7B2C"/>
<stop offset="1" stop-color="#FF386A"/>
</linearGradient>
</defs>
</svg>
