<svg width="20" height="20" viewBox="0 0 20 20" fill="none" xmlns="http://www.w3.org/2000/svg">
<path fill-rule="evenodd" clip-rule="evenodd" d="M10 1C5.02911 1 1 5.02911 1 10C1 14.9709 5.02911 19 10 19C14.9709 19 19 14.9709 19 10C19 5.02911 14.9709 1 10 1ZM10 2.35C14.2253 2.35 17.65 5.77469 17.65 10C17.65 14.2253 14.2253 17.65 10 17.65C5.77469 17.65 2.35 14.2253 2.35 10C2.35 5.77469 5.77469 2.35 10 2.35ZM10.3639 6.16998C10.3192 5.84051 10.0367 5.58657 9.69502 5.58657C9.32223 5.58657 9.02002 5.88878 9.02002 6.26157V10.6239L9.02754 10.7244C9.05736 10.9225 9.17422 11.0992 9.34921 11.2036L12.7422 13.2277L12.824 13.2693C13.1299 13.3997 13.4926 13.2873 13.6677 12.9938L13.7093 12.912C13.8397 12.6061 13.7273 12.2434 13.4338 12.0683L10.3697 10.2397L10.37 6.26157L10.3639 6.16998Z" fill="url(#paint0_linear)"/>
<path d="M10.3639 6.16998L10.6632 6.14984L10.6625 6.13971L10.6611 6.12965L10.3639 6.16998ZM9.02002 10.6239H8.72002V10.6351L8.72086 10.6462L9.02002 10.6239ZM9.02754 10.7244L8.72838 10.7468L8.72921 10.758L8.73088 10.7691L9.02754 10.7244ZM9.34921 11.2036L9.19551 11.4612L9.19551 11.4612L9.34921 11.2036ZM12.7422 13.2277L12.5885 13.4853L12.5972 13.4905L12.6062 13.495L12.7422 13.2277ZM12.824 13.2693L12.688 13.5367L12.697 13.5413L12.7064 13.5453L12.824 13.2693ZM13.6677 12.9938L13.9253 13.1475L13.9305 13.1388L13.9351 13.1298L13.6677 12.9938ZM13.7093 12.912L13.9767 13.048L13.9813 13.039L13.9853 13.0296L13.7093 12.912ZM13.4338 12.0683L13.2801 12.3259L13.2801 12.3259L13.4338 12.0683ZM10.3697 10.2397L10.0697 10.2396L10.0696 10.41L10.2159 10.4973L10.3697 10.2397ZM10.37 6.26157L10.67 6.2616L10.67 6.2515L10.6693 6.24143L10.37 6.26157ZM1.3 10C1.3 5.19479 5.19479 1.3 10 1.3V0.7C4.86342 0.7 0.7 4.86342 0.7 10H1.3ZM10 18.7C5.19479 18.7 1.3 14.8052 1.3 10H0.7C0.7 15.1366 4.86342 19.3 10 19.3V18.7ZM18.7 10C18.7 14.8052 14.8052 18.7 10 18.7V19.3C15.1366 19.3 19.3 15.1366 19.3 10H18.7ZM10 1.3C14.8052 1.3 18.7 5.19479 18.7 10H19.3C19.3 4.86342 15.1366 0.7 10 0.7V1.3ZM17.95 10C17.95 5.60901 14.391 2.05 10 2.05V2.65C14.0596 2.65 17.35 5.94038 17.35 10H17.95ZM10 17.95C14.391 17.95 17.95 14.391 17.95 10H17.35C17.35 14.0596 14.0596 17.35 10 17.35V17.95ZM2.05 10C2.05 14.391 5.60901 17.95 10 17.95V17.35C5.94038 17.35 2.65 14.0596 2.65 10H2.05ZM10 2.05C5.60901 2.05 2.05 5.60901 2.05 10H2.65C2.65 5.94038 5.94038 2.65 10 2.65V2.05ZM9.69502 5.88657C9.88462 5.88657 10.0418 6.02756 10.0666 6.21031L10.6611 6.12965C10.5965 5.65346 10.1889 5.28657 9.69502 5.28657V5.88657ZM9.32002 6.26157C9.32002 6.05447 9.48791 5.88657 9.69502 5.88657V5.28657C9.15654 5.28657 8.72002 5.72309 8.72002 6.26157H9.32002ZM9.32002 10.6239V6.26157H8.72002V10.6239H9.32002ZM9.32671 10.7021L9.31918 10.6015L8.72086 10.6462L8.72838 10.7468L9.32671 10.7021ZM9.5029 10.9459C9.40572 10.8879 9.34076 10.7898 9.3242 10.6798L8.73088 10.7691C8.77396 11.0552 8.94272 11.3104 9.19551 11.4612L9.5029 10.9459ZM12.8959 12.97L9.5029 10.9459L9.19551 11.4612L12.5885 13.4853L12.8959 12.97ZM12.9601 13.0019L12.8783 12.9603L12.6062 13.495L12.688 13.5367L12.9601 13.0019ZM13.4101 12.8401C13.3129 13.0029 13.1113 13.0657 12.9417 12.9933L12.7064 13.5453C13.1484 13.7337 13.6723 13.5716 13.9253 13.1475L13.4101 12.8401ZM13.442 12.7759L13.4003 12.8577L13.9351 13.1298L13.9767 13.048L13.442 12.7759ZM13.2801 12.3259C13.443 12.4231 13.5057 12.6247 13.4334 12.7943L13.9853 13.0296C14.1738 12.5876 14.0116 12.0637 13.5875 11.8106L13.2801 12.3259ZM10.2159 10.4973L13.2801 12.3259L13.5876 11.8107L10.5234 9.98205L10.2159 10.4973ZM10.07 6.26155L10.0697 10.2396L10.6697 10.2397L10.67 6.2616L10.07 6.26155ZM10.0645 6.19012L10.0707 6.28171L10.6693 6.24143L10.6632 6.14984L10.0645 6.19012Z" fill="url(#paint1_linear)"/>
<defs>
<linearGradient id="paint0_linear" x1="37.766" y1="-1.48936" x2="7.26708" y2="22.2607" gradientUnits="userSpaceOnUse">
<stop stop-color="#FF8820"/>
<stop offset="0.744792" stop-color="#FF7B2C"/>
<stop offset="1" stop-color="#FF386A"/>
</linearGradient>
<linearGradient id="paint1_linear" x1="37.766" y1="-1.48936" x2="7.26708" y2="22.2607" gradientUnits="userSpaceOnUse">
<stop stop-color="#FF8820"/>
<stop offset="0.744792" stop-color="#FF7B2C"/>
<stop offset="1" stop-color="#FF386A"/>
</linearGradient>
</defs>
</svg>
