<svg width="30" height="30" viewBox="0 0 30 30" fill="none" xmlns="http://www.w3.org/2000/svg">
<path fill-rule="evenodd" clip-rule="evenodd" d="M15 0C6.71573 0 0 6.71573 0 15C0 23.2843 6.71573 30 15 30C23.2843 30 30 23.2843 30 15C30 6.71573 23.2843 0 15 0ZM14.8217 12.7112L14.7903 12.1922C14.6958 10.8469 15.5247 9.6182 16.8362 9.14154C17.3189 8.97206 18.1373 8.95087 18.6724 9.09917C18.8822 9.16273 19.2809 9.37458 19.5642 9.56524L20.0783 9.91479L20.6449 9.73472C20.9597 9.63939 21.3793 9.4805 21.5682 9.37458C21.7466 9.27924 21.904 9.22628 21.904 9.25806C21.904 9.43813 21.5157 10.0525 21.1905 10.3915C20.7498 10.8681 20.8757 10.9105 21.7676 10.5927C22.3027 10.4126 22.3132 10.4126 22.2082 10.6139C22.1453 10.7198 21.82 11.0906 21.4738 11.4295C20.8862 12.0121 20.8547 12.0757 20.8547 12.5629C20.8547 13.315 20.498 14.8827 20.1413 15.7407C19.4803 17.3507 18.0638 19.0138 16.6474 19.8506C14.6539 21.0264 11.9993 21.3229 9.76449 20.6344C9.01955 20.4014 7.7395 19.8082 7.7395 19.7023C7.7395 19.6705 8.12771 19.6281 8.59986 19.6175C9.58613 19.5964 10.5724 19.321 11.4118 18.8337L11.9783 18.4947L11.3278 18.2723C10.4045 17.9545 9.57563 17.2236 9.36579 16.5351C9.30284 16.3127 9.32382 16.3021 9.91139 16.3021L10.5199 16.2915L10.0058 16.0479C9.39727 15.7407 8.84118 15.2217 8.56839 14.692C8.36903 14.3107 8.11722 13.3468 8.19067 13.2726C8.21165 13.2408 8.43199 13.3044 8.6838 13.3891C9.40776 13.654 9.50219 13.5904 9.0825 13.1455C8.29559 12.3405 8.05427 11.1435 8.43199 10.0101L8.61035 9.50169L9.30284 10.1902C10.7193 11.5778 12.3875 12.404 14.2971 12.6477L14.8217 12.7112Z" fill="white"/>
</svg>
