<svg width="30" height="30" viewBox="0 0 30 30" fill="none" xmlns="http://www.w3.org/2000/svg">
<path fill-rule="evenodd" clip-rule="evenodd" d="M15 30C23.2843 30 30 23.2843 30 15C30 6.71573 23.2843 0 15 0C6.71573 0 0 6.71573 0 15C0 23.2843 6.71573 30 15 30ZM14.9999 5.36865C9.68032 5.36865 5.36792 9.68105 5.36792 15.0007C5.36792 20.3203 9.68032 24.6327 14.9999 24.6327C20.3195 24.6327 24.6319 20.3203 24.6319 15.0007C24.6319 9.68105 20.3195 5.36865 14.9999 5.36865ZM4.36792 15.0007C4.36792 9.12877 9.12803 4.36865 14.9999 4.36865C20.8718 4.36865 25.6319 9.12877 25.6319 15.0007C25.6319 20.8726 20.8718 25.6327 14.9999 25.6327C9.12803 25.6327 4.36792 20.8726 4.36792 15.0007ZM14.9998 23.6961C19.8316 23.6961 23.7485 19.7792 23.7485 14.9474C23.7485 10.1157 19.8316 6.19873 14.9998 6.19873C10.168 6.19873 6.2511 10.1157 6.2511 14.9474C6.2511 19.7792 10.168 23.6961 14.9998 23.6961ZM9.80322 9.73564V11.207H11.1186C11.3535 11.207 11.544 11.3975 11.544 11.6325V18.3042C11.544 18.5392 11.3535 18.7297 11.1186 18.7297H9.80322V20.201H12.6009V22.4599H14.0516V20.201H15.0049V22.4599H16.4141V20.201C17.319 20.2494 19.2639 20.043 19.9993 18.9576C20.6102 18.0559 20.6564 16.8828 20.6102 16.3872C20.5251 15.4756 19.4272 14.6821 18.7144 14.4606L18.7372 14.4451C19.1446 14.1678 19.8749 13.6707 19.8749 12.4504C19.8749 10.7907 18.4774 9.73564 16.4141 9.73564V7.4353H15.0049V9.73564H14.0309V7.4353H12.6009V9.73564H9.80322ZM14.0309 14.0763V11.3868C14.1925 11.3868 14.3767 11.3774 14.5729 11.3673L14.5729 11.3673C15.6691 11.3113 17.1398 11.2361 17.1398 12.6777C17.1398 14.1645 15.6576 14.1203 14.5021 14.0859C14.3365 14.081 14.1777 14.0763 14.0309 14.0763ZM14.0516 15.5824V18.487C14.192 18.487 14.3457 18.4901 14.5084 18.4933C15.8647 18.5205 17.8391 18.5601 17.8391 16.9271C17.8391 15.3977 16.1373 15.4858 14.7881 15.5557H14.7881H14.7881H14.7881C14.5239 15.5694 14.2733 15.5824 14.0516 15.5824Z" fill="white"/>
</svg>
