<svg width="30" height="30" viewBox="0 0 30 30" fill="none" xmlns="http://www.w3.org/2000/svg">
<path fill-rule="evenodd" clip-rule="evenodd" d="M15 30C23.2843 30 30 23.2843 30 15C30 6.71573 23.2843 0 15 0C6.71573 0 0 6.71573 0 15C0 23.2843 6.71573 30 15 30ZM22.7485 12.1055C23.9573 12.1055 24.9403 13.0815 24.9403 14.2831C24.9403 15.1289 24.4533 15.862 23.7404 16.2221C23.7714 16.4346 23.7891 16.6472 23.7891 16.8641C23.7891 20.1565 19.8527 22.8285 14.9998 22.8285C10.1468 22.8285 6.21045 20.1565 6.20602 16.8684C6.20602 16.6515 6.22373 16.439 6.25916 16.2264C5.54627 15.8664 5.0592 15.1333 5.0592 14.2831C5.0592 13.0815 6.04219 12.1055 7.251 12.1055C7.82662 12.1055 8.34911 12.3224 8.73876 12.6824C10.2088 11.6717 12.2102 11.0124 14.4374 10.9169L14.5481 10.9126L15.9119 6.44467L19.8837 7.22547C20.2158 6.59649 20.8711 6.17139 21.6327 6.17139H21.6371H21.646C22.7353 6.17139 23.6208 7.04762 23.6208 8.12774C23.6208 9.20785 22.7397 10.0841 21.6504 10.0841H21.6327C20.6099 10.0841 19.773 9.31629 19.6712 8.33161L16.7001 7.74601L15.7304 10.9213C17.8912 11.0427 19.8261 11.6934 21.2608 12.6824C21.6549 12.3224 22.1729 12.1055 22.7485 12.1055ZM6.09532 14.2527C6.09532 14.6301 6.28572 14.9598 6.57796 15.155C6.81264 14.5 7.25543 13.9014 7.85319 13.3852C7.66722 13.2463 7.43697 13.1639 7.18901 13.1639C6.58682 13.1639 6.09532 13.6541 6.09532 14.2527ZM21.6327 7.39898C21.2298 7.39898 20.9021 7.72866 20.9021 8.12774C20.9021 8.53115 21.2298 8.85649 21.6327 8.85649C22.0356 8.85649 22.3633 8.52681 22.3633 8.12774C22.3633 7.72432 22.0356 7.39898 21.6327 7.39898ZM12.0907 14.526C11.3114 14.526 10.6826 15.142 10.6826 15.9054C10.6826 16.6689 11.3114 17.2848 12.0907 17.2848C12.87 17.2848 13.4987 16.6689 13.4987 15.9054C13.4987 15.142 12.87 14.526 12.0907 14.526ZM11.5815 19.4581C11.6346 19.5101 12.8921 20.7377 14.9998 20.7464C17.1074 20.7377 18.3605 19.5101 18.4137 19.4581L17.8557 18.9202C17.8552 18.9206 17.8525 18.923 17.8479 18.9272C17.7477 19.0187 16.7055 19.9703 14.9998 19.9786C13.2009 19.97 12.1622 18.9428 12.1397 18.9205L12.1394 18.9202L11.5815 19.4581ZM16.5274 15.9054C16.5274 16.6689 17.1561 17.2848 17.9354 17.2848C18.7103 17.2848 19.3435 16.6689 19.3435 15.9054C19.3435 15.142 18.7147 14.526 17.9354 14.526C17.1561 14.526 16.5274 15.142 16.5274 15.9054ZM22.1331 13.3765C22.7397 13.897 23.1913 14.5086 23.4304 15.1723C23.7271 14.9728 23.9219 14.6388 23.9175 14.257C23.9175 13.6454 23.4216 13.1509 22.8061 13.1509C22.5537 13.1509 22.319 13.2333 22.1331 13.3765Z" fill="white"/>
</svg>
