<svg width="30" height="30" viewBox="0 0 30 30" fill="none" xmlns="http://www.w3.org/2000/svg">
<path fill-rule="evenodd" clip-rule="evenodd" d="M15 30C23.2843 30 30 23.2843 30 15C30 6.71573 23.2843 0 15 0C6.71573 0 0 6.71573 0 15C0 23.2843 6.71573 30 15 30ZM9.60198 7.58918L9.29017 9.35758L10.871 9.63633C11.1535 9.68612 11.342 9.95543 11.2922 10.2378L9.87833 18.2564C9.82854 18.5389 9.55922 18.7274 9.27681 18.6776L7.69594 18.3989L7.38412 20.1673L10.7466 20.7602L10.2679 23.4751L12.0114 23.7825L12.4901 21.0676L13.6358 21.2696L13.1571 23.9845L14.8508 24.2832L15.3295 21.5683C16.4069 21.8182 18.7882 21.9823 19.902 20.8336C20.8273 19.8794 21.1315 18.4793 21.181 17.8737C21.2719 16.7601 20.1205 15.5737 19.3108 15.1565L19.3415 15.1426C19.8898 14.8957 20.873 14.453 21.1316 12.9864C21.4833 10.9917 20.0273 9.42744 17.5474 8.99017L18.0349 6.22545L16.3412 5.92681L15.8537 8.69153L14.6831 8.48511L15.1706 5.7204L13.452 5.41736L12.9645 8.18207L9.60198 7.58918ZM13.7632 13.702L14.3332 10.4696C14.5274 10.5039 14.7508 10.5316 14.9887 10.5611L14.9887 10.5611C16.3181 10.726 18.1017 10.9473 17.7962 12.68C17.4811 14.4669 15.709 14.0997 14.3275 13.8135C14.1296 13.7725 13.9396 13.7331 13.7632 13.702ZM13.4689 15.5165L12.8534 19.0075C13.0221 19.0373 13.2062 19.0736 13.401 19.112C15.0254 19.4321 17.39 19.8981 17.7361 17.9354C18.0602 16.0973 15.9961 15.8425 14.3598 15.6406L14.3597 15.6406C14.0394 15.601 13.7354 15.5635 13.4689 15.5165Z" fill="white"/>
</svg>
