<svg width="30" height="30" viewBox="0 0 30 30" fill="none" xmlns="http://www.w3.org/2000/svg">
<path fill-rule="evenodd" clip-rule="evenodd" d="M15 0C6.71573 0 0 6.71573 0 15C0 23.2843 6.71573 30 15 30C23.2843 30 30 23.2843 30 15C30 6.71573 23.2843 0 15 0ZM12.0136 20.8434L12.2783 17.1207L19.0963 10.9987C19.3929 10.7361 19.0323 10.5907 18.6356 10.8534L10.2069 16.1274L6.57827 14.9987C5.78894 14.7541 5.77427 14.2141 6.74294 13.838L20.9363 8.40405C21.5936 8.15938 22.1683 8.54938 21.9543 9.54672L21.9536 9.54738L19.5389 20.862C19.3569 21.6607 18.8816 21.8587 18.2069 21.4827L14.5283 18.7887L12.7529 20.4854C12.5563 20.6807 12.3923 20.8434 12.0136 20.8434Z" fill="white"/>
</svg>
