<svg width="30" height="30" viewBox="0 0 30 30" fill="none" xmlns="http://www.w3.org/2000/svg">
<path fill-rule="evenodd" clip-rule="evenodd" d="M15 0C6.71573 0 0 6.71573 0 15C0 23.2843 6.71573 30 15 30C23.2843 30 30 23.2843 30 15C30 6.71573 23.2843 0 15 0ZM21.2511 9.59309C21.9396 9.782 22.4818 10.3386 22.6658 11.0455C23.0001 12.3267 23.0001 14.9998 23.0001 14.9998C23.0001 14.9998 23.0001 17.6728 22.6658 18.954C22.4818 19.6609 21.9396 20.2175 21.2511 20.4065C20.0035 20.7498 15.0001 20.7498 15.0001 20.7498C15.0001 20.7498 9.99676 20.7498 8.74903 20.4065C8.06058 20.2175 7.51839 19.6609 7.33439 18.954C7.00012 17.6728 7.00012 14.9998 7.00012 14.9998C7.00012 14.9998 7.00012 12.3267 7.33439 11.0455C7.51839 10.3386 8.06058 9.782 8.74903 9.59309C9.99676 9.24976 15.0001 9.24976 15.0001 9.24976C15.0001 9.24976 20.0035 9.24976 21.2511 9.59309Z" fill="white"/>
<path fill-rule="evenodd" clip-rule="evenodd" d="M13.5 17.5V12.5L17.5 15.0001L13.5 17.5Z" fill="white"/>
</svg>
