<svg width="30" height="30" viewBox="0 0 30 30" fill="none" xmlns="http://www.w3.org/2000/svg">
<path fill-rule="evenodd" clip-rule="evenodd" d="M15 30C23.2843 30 30 23.2843 30 15C30 6.71573 23.2843 0 15 0C6.71573 0 0 6.71573 0 15C0 23.2843 6.71573 30 15 30ZM17.495 8.02242C17.6059 8.03022 20.1911 8.25314 21.825 9.56852C22.7118 10.3863 24.4423 15.0624 24.4423 19.1055C24.4423 19.1777 24.423 19.2467 24.3881 19.3091C23.1946 21.4065 19.9378 21.955 19.1947 21.9793H19.1824C19.1177 21.9794 19.0538 21.9642 18.9961 21.9349C18.9384 21.9057 18.8884 21.8632 18.8502 21.8109L18.0998 20.778C20.125 20.2554 21.1596 19.367 21.2187 19.314C21.259 19.2785 21.292 19.2355 21.3157 19.1873C21.3393 19.1391 21.3533 19.0867 21.3567 19.0331C21.3602 18.9794 21.353 18.9257 21.3357 18.8749C21.3183 18.824 21.2911 18.7771 21.2556 18.7368C21.1839 18.655 21.0827 18.605 20.9742 18.5977C20.8656 18.5905 20.7587 18.6266 20.6768 18.6982L20.676 18.6988C20.6285 18.7387 18.7238 20.3371 14.9998 20.3371C11.2535 20.3371 9.34821 18.7208 9.3244 18.6982C9.24274 18.6261 9.13579 18.5894 9.02707 18.5962C8.91836 18.603 8.81679 18.6527 8.74471 18.7343C8.67263 18.816 8.63594 18.9229 8.64272 19.0316C8.64949 19.1404 8.69918 19.2419 8.78084 19.314C8.83996 19.367 9.87453 20.2554 11.8997 20.778L11.1497 21.8109C11.1115 21.8632 11.0614 21.9058 11.0036 21.935C10.9458 21.9643 10.8819 21.9794 10.8171 21.9793H10.8044C10.0621 21.955 6.80489 21.407 5.61185 19.3091C5.57655 19.2467 5.55725 19.1777 5.55725 19.1055C5.55725 15.0624 7.28769 10.3859 8.15189 9.58618C9.80843 8.25314 12.3936 8.03063 12.5045 8.02242C12.5891 8.01473 12.6739 8.03382 12.7471 8.07699C12.8202 8.12016 12.878 8.18522 12.9121 8.26299C12.9127 8.26444 12.9141 8.26788 12.9163 8.27321C12.9311 8.30884 12.981 8.42911 13.0353 8.60621C11.9543 8.78726 10.6266 9.15634 9.42539 9.89983C9.33284 9.95727 9.2669 10.0491 9.24207 10.1552C9.21724 10.2612 9.23556 10.3728 9.29299 10.4654C9.35043 10.5579 9.44228 10.6238 9.54833 10.6487C9.60085 10.661 9.65527 10.6628 9.70849 10.6541C9.76171 10.6453 9.81269 10.6262 9.85852 10.5978C11.9223 9.31645 14.503 9.2524 14.9998 9.2524C15.4969 9.2524 18.076 9.31604 20.141 10.5982C20.1868 10.6266 20.2378 10.6457 20.291 10.6545C20.3442 10.6632 20.3987 10.6614 20.4512 10.6491C20.5037 10.6368 20.5533 10.6143 20.5971 10.5828C20.6409 10.5514 20.6781 10.5116 20.7065 10.4658C20.735 10.4199 20.7541 10.369 20.7628 10.3157C20.7716 10.2625 20.7697 10.2081 20.7574 10.1556C20.7451 10.1031 20.7226 10.0535 20.6912 10.0097C20.6597 9.96587 20.6199 9.92868 20.5741 9.90024C19.3729 9.1547 18.0452 8.78726 16.9642 8.60457C16.9983 8.48804 17.0401 8.37393 17.0894 8.26299C17.1237 8.18577 17.1812 8.12113 17.2539 8.07802C17.3265 8.03491 17.4108 8.01548 17.495 8.02242ZM10.8943 15.8211C10.8943 16.7284 11.5372 17.4633 12.3312 17.4633C13.1252 17.4633 13.7681 16.7284 13.7681 15.8211C13.7681 14.9138 13.1252 14.1789 12.3312 14.1789C11.5372 14.1789 10.8943 14.9138 10.8943 15.8211ZM16.2314 15.8211C16.2314 16.7284 16.8743 17.4633 17.6683 17.4633C18.4623 17.4633 19.1052 16.7284 19.1052 15.8211C19.1052 14.9138 18.4623 14.1789 17.6683 14.1789C16.8743 14.1789 16.2314 14.9138 16.2314 15.8211Z" fill="white"/>
</svg>
