<svg width="30" height="30" viewBox="0 0 30 30" fill="none" xmlns="http://www.w3.org/2000/svg">
<path fill-rule="evenodd" clip-rule="evenodd" d="M0 15C0 6.71573 6.71573 0 15 0C23.2843 0 30 6.71573 30 15C30 23.2843 23.2843 30 15 30C6.71573 30 0 23.2843 0 15ZM11.7022 7.04809C12.5555 7.00926 12.8282 6.99976 15.0009 6.99976H14.9984C17.1717 6.99976 17.4434 7.00926 18.2967 7.04809C19.1484 7.08709 19.7301 7.22192 20.2401 7.41976C20.7668 7.62393 21.2118 7.89727 21.6568 8.34227C22.1018 8.78694 22.3751 9.23328 22.5801 9.75945C22.7768 10.2681 22.9118 10.8495 22.9518 11.7011C22.9901 12.5545 23.0001 12.8271 23.0001 14.9998C23.0001 17.1725 22.9901 17.4445 22.9518 18.2979C22.9118 19.1492 22.7768 19.7307 22.5801 20.2396C22.3751 20.7656 22.1018 21.2119 21.6568 21.6566C21.2123 22.1016 20.7666 22.3756 20.2406 22.5799C19.7316 22.7778 19.1496 22.9126 18.2979 22.9516C17.4446 22.9904 17.1727 22.9999 14.9999 22.9999C12.8273 22.9999 12.5548 22.9904 11.7015 22.9516C10.85 22.9126 10.2685 22.7778 9.75948 22.5799C9.23365 22.3756 8.78731 22.1016 8.3428 21.6566C7.89796 21.2119 7.62463 20.7656 7.42013 20.2394C7.22246 19.7307 7.08762 19.1494 7.04846 18.2977C7.00979 17.4444 7.00012 17.1725 7.00012 14.9998C7.00012 12.8271 7.01012 12.5543 7.04829 11.701C7.08662 10.8496 7.22162 10.2681 7.41996 9.75928C7.62496 9.23328 7.8983 8.78694 8.3433 8.34227C8.78797 7.89743 9.23431 7.6241 9.76048 7.41976C10.2692 7.22192 10.8505 7.08709 11.7022 7.04809ZM18.3114 10.7283C18.3114 10.1981 18.7414 9.76864 19.2714 9.76864V9.76831C19.8014 9.76831 20.2314 10.1983 20.2314 10.7283C20.2314 11.2583 19.8014 11.6883 19.2714 11.6883C18.7414 11.6883 18.3114 11.2583 18.3114 10.7283ZM10.8927 14.9988C10.8927 12.73 12.7321 10.8905 15.0009 10.8904C17.2698 10.8904 19.1088 12.7299 19.1088 14.9988C19.1088 17.2676 17.2699 19.1063 15.0011 19.1063C12.7322 19.1063 10.8927 17.2676 10.8927 14.9988ZM17.6679 14.999C17.6679 13.5261 16.4738 12.3323 15.0012 12.3323C13.5283 12.3323 12.3345 13.5261 12.3345 14.999C12.3345 16.4717 13.5283 17.6657 15.0012 17.6657C16.4738 17.6657 17.6679 16.4717 17.6679 14.999Z" fill="white"/>
</svg>
