<svg width="30" height="30" viewBox="0 0 30 30" fill="none" xmlns="http://www.w3.org/2000/svg">
<path fill-rule="evenodd" clip-rule="evenodd" d="M15 30C23.2843 30 30 23.2843 30 15C30 6.71573 23.2843 0 15 0C6.71573 0 0 6.71573 0 15C0 23.2843 6.71573 30 15 30ZM8.95458 22.4759C8.23109 22.4759 7.74704 21.7314 8.0406 21.0702L14.0351 7.56769C14.3857 6.77784 15.5056 6.77465 15.8607 7.56249L21.9474 21.065C22.2457 21.7268 21.7617 22.4759 21.0358 22.4759H20.4688C20.0664 22.4759 19.7033 22.2348 19.5472 21.8639L17.8365 17.7997H12.0476L10.337 21.8639C10.1809 22.2348 9.81772 22.4759 9.41533 22.4759H8.95458ZM14.9421 15.4616H17.0261L14.9421 11.0192L12.8581 15.4616H14.9421Z" fill="white"/>
</svg>
