<svg width="24" height="24" viewBox="0 0 24 24" fill="none" xmlns="http://www.w3.org/2000/svg">
<path fill-rule="evenodd" clip-rule="evenodd" d="M6 16C6 15.1822 5.5021 14.4468 4.74278 14.143C4.55945 14.0697 3.83635 13.6422 3.16416 12.7749C2.52967 11.9562 2 10.8214 2 9.33333C2 5.72189 5.98027 2 12 2C14.9802 2 17.5365 2.801 19.294 4.10426C21.0079 5.37525 22 7.1358 22 9.33333C22 11.3474 21.1485 12.9303 19.6333 14.0667C18.0669 15.2415 15.691 16 12.6667 16C12.2599 16 11.8627 16.1241 11.5282 16.3556L6 20.1829V16ZM0 9.33333C0 13.3333 2.88889 15.5556 4 16V22.0914C4 22.8981 4.90598 23.3728 5.56921 22.9136L12.6667 18C19.3333 18 24 14.6667 24 9.33333C24 3.54964 18.6274 0 12 0C5.37258 0 0 4.17868 0 9.33333ZM8 10.6667C8.73638 10.6667 9.33333 10.0697 9.33333 9.33333C9.33333 8.59695 8.73638 8 8 8C7.26362 8 6.66667 8.59695 6.66667 9.33333C6.66667 10.0697 7.26362 10.6667 8 10.6667ZM13.3335 9.33333C13.3335 10.0697 12.7365 10.6667 12.0002 10.6667C11.2638 10.6667 10.6668 10.0697 10.6668 9.33333C10.6668 8.59695 11.2638 8 12.0002 8C12.7365 8 13.3335 8.59695 13.3335 9.33333ZM16.0002 10.6667C16.7365 10.6667 17.3335 10.0697 17.3335 9.33333C17.3335 8.59695 16.7365 8 16.0002 8C15.2638 8 14.6668 8.59695 14.6668 9.33333C14.6668 10.0697 15.2638 10.6667 16.0002 10.6667Z" fill="url(#paint0_linear)"/>
<defs>
<linearGradient id="paint0_linear" x1="49.0213" y1="-3.19374" x2="9.54932" y2="28.7509" gradientUnits="userSpaceOnUse">
<stop stop-color="#FF8820"/>
<stop offset="0.744792" stop-color="#FF7B2C"/>
<stop offset="1" stop-color="#FF386A"/>
</linearGradient>
</defs>
</svg>
