<svg width="14" height="18" viewBox="0 0 14 18" fill="none" xmlns="http://www.w3.org/2000/svg">
<path d="M7.25 9C8.14002 9 9.01005 8.73608 9.75007 8.24161C10.4901 7.74715 11.0669 7.04434 11.4075 6.22208C11.7481 5.39981 11.8372 4.49501 11.6635 3.6221C11.4899 2.74918 11.0613 1.94736 10.432 1.31802C9.80264 0.688685 9.00082 0.260102 8.12791 0.0864683C7.25499 -0.0871652 6.35019 0.00194979 5.52792 0.342544C4.70566 0.683138 4.00285 1.25991 3.50839 1.99994C3.01392 2.73996 2.75 3.60999 2.75 4.5C2.75119 5.69311 3.22568 6.83701 4.06933 7.68067C4.91299 8.52432 6.05689 8.99881 7.25 9ZM7.25 1.5C7.84334 1.5 8.42336 1.67595 8.91671 2.00559C9.41006 2.33524 9.79457 2.80377 10.0216 3.35195C10.2487 3.90013 10.3081 4.50333 10.1924 5.08527C10.0766 5.66722 9.79088 6.20176 9.37132 6.62132C8.95176 7.04088 8.41721 7.3266 7.83527 7.44236C7.25333 7.55811 6.65013 7.4987 6.10195 7.27164C5.55377 7.04458 5.08524 6.66006 4.75559 6.16671C4.42595 5.67336 4.25 5.09335 4.25 4.5C4.25 3.70435 4.56607 2.94129 5.12868 2.37868C5.69129 1.81607 6.45435 1.5 7.25 1.5ZM7.25 10.5C5.46046 10.5022 3.74484 11.214 2.47944 12.4794C1.21404 13.7448 0.502183 15.4605 0.5 17.25C0.5 17.4489 0.579018 17.6397 0.71967 17.7803C0.860322 17.921 1.05109 18 1.25 18C1.44891 18 1.63968 17.921 1.78033 17.7803C1.92098 17.6397 2 17.4489 2 17.25C2 15.8576 2.55312 14.5223 3.53769 13.5377C4.52225 12.5531 5.85761 12 7.25 12C8.64239 12 9.97774 12.5531 10.9623 13.5377C11.9469 14.5223 12.5 15.8576 12.5 17.25C12.5 17.4489 12.579 17.6397 12.7197 17.7803C12.8603 17.921 13.0511 18 13.25 18C13.4489 18 13.6397 17.921 13.7803 17.7803C13.921 17.6397 14 17.4489 14 17.25C13.9978 15.4605 13.286 13.7448 12.0206 12.4794C10.7552 11.214 9.03954 10.5022 7.25 10.5Z" fill="#292F45"/>
</svg>
