<svg width="165" height="31" viewBox="0 0 165 31" fill="none" xmlns="http://www.w3.org/2000/svg">
<path d="M63.1611 7.02723H69.7809C71.3935 7.02723 72.6665 7.13756 73.6001 7.35822C74.5506 7.57888 75.238 7.96928 75.6624 8.52942C76.1037 9.07258 76.3244 9.83641 76.3244 10.8209V13.9526C76.3244 15.0389 76.0867 15.8876 75.6115 16.4986C75.1532 17.1097 74.4148 17.5425 73.3964 17.7971C72.3949 18.0518 71.037 18.1791 69.3226 18.1791H67.133V23.5513H63.1611V7.02723ZM69.6536 15.4548C70.689 15.4548 71.4189 15.3359 71.8433 15.0983C72.2676 14.8437 72.4798 14.4194 72.4798 13.8253V11.1773C72.4798 10.6342 72.2761 10.2777 71.8687 10.108C71.4783 9.93825 70.723 9.85338 69.6027 9.85338H67.133V15.4548H69.6536Z" fill="#292F45"/>
<path d="M79.0729 5.72873H82.7902V23.5513H79.0729V5.72873Z" fill="#292F45"/>
<path d="M89.6449 23.8059C88.4907 23.8059 87.6251 23.7041 87.0479 23.5004C86.4878 23.2797 86.0889 22.8978 85.8513 22.3546C85.6306 21.7945 85.5203 20.9628 85.5203 19.8595C85.5203 18.875 85.6391 18.1027 85.8767 17.5425C86.1314 16.9824 86.5302 16.5835 87.0734 16.3459C87.6335 16.0913 88.3974 15.964 89.3649 15.964H93.5404V15.1238C93.5404 14.5976 93.4641 14.2072 93.3113 13.9526C93.1755 13.698 92.9124 13.5197 92.522 13.4179C92.1486 13.316 91.58 13.2651 90.8161 13.2651C89.7638 13.2651 88.321 13.367 86.4878 13.5707V11.2283C87.8287 11.0585 89.3988 10.9737 91.1981 10.9737C92.7766 10.9737 93.9903 11.0925 94.8389 11.3301C95.7046 11.5677 96.3242 11.9751 96.6976 12.5522C97.071 13.1293 97.2577 13.9695 97.2577 15.0728V23.5513H93.6168V22.431C93.3283 22.9233 92.9379 23.2712 92.4456 23.4749C91.9534 23.6956 91.0198 23.8059 89.6449 23.8059ZM91.0962 21.489C91.8431 21.489 92.3777 21.4635 92.7002 21.4126C92.9379 21.3786 93.0991 21.3277 93.184 21.2598C93.2858 21.1919 93.3707 21.0816 93.4386 20.9288C93.5065 20.81 93.5404 20.6318 93.5404 20.3942V18.0008H90.9944C90.4173 18.0008 90.0099 18.0433 89.7722 18.1281C89.5346 18.196 89.3734 18.3488 89.2885 18.5864C89.2036 18.8071 89.1612 19.206 89.1612 19.7831C89.1612 20.3432 89.2036 20.7336 89.2885 20.9543C89.3734 21.1749 89.5346 21.3192 89.7722 21.3871C90.0269 21.455 90.4682 21.489 91.0962 21.489Z" fill="#292F45"/>
<path d="M106.69 23.8059C106.062 23.8059 105.536 23.7804 105.111 23.7295C104.687 23.6786 104.262 23.5768 103.838 23.424C103.363 23.2712 102.972 23.059 102.667 22.7875C102.378 22.5159 102.141 22.1425 101.954 21.6672C101.75 21.1749 101.649 20.6063 101.649 19.9613V13.5197H99.1534V11.2283H101.649V7.66375H105.366V11.2283H108.752V13.5197H105.366V19.3248C105.366 19.9189 105.417 20.3687 105.519 20.6742C105.62 20.9628 105.816 21.1749 106.104 21.3107C106.393 21.4296 106.834 21.489 107.428 21.489C107.666 21.489 108.107 21.4465 108.752 21.3617V23.6786C107.954 23.7635 107.267 23.8059 106.69 23.8059Z" fill="#292F45"/>
<path d="M111.839 13.5197H109.522V11.2283H111.839V9.36962C111.839 8.36817 112 7.58737 112.322 7.02723C112.662 6.45012 113.171 6.05123 113.85 5.83057C114.546 5.59294 115.471 5.47412 116.625 5.47412C117.253 5.47412 118.178 5.54202 119.4 5.67781V7.96928C118.314 7.83349 117.584 7.76559 117.211 7.76559C116.583 7.76559 116.15 7.86744 115.912 8.07112C115.675 8.25784 115.556 8.62277 115.556 9.16594V11.2283H118.942V13.5197H115.556V23.5513H111.839V13.5197Z" fill="#292F45"/>
<path d="M126.674 23.8059C125.911 23.8059 125.283 23.7804 124.79 23.7295C124.298 23.6786 123.772 23.5768 123.212 23.424C122.601 23.2542 122.109 23.0166 121.735 22.7111C121.362 22.3886 121.048 21.9388 120.793 21.3617C120.538 20.8015 120.411 20.1226 120.411 19.3248V15.6839C120.411 14.8692 120.538 14.1563 120.793 13.5452C121.048 12.9341 121.379 12.4589 121.786 12.1194C122.142 11.8308 122.609 11.5932 123.186 11.4065C123.78 11.2028 124.358 11.0755 124.918 11.0246C125.563 10.9906 126.148 10.9737 126.674 10.9737C127.455 10.9737 128.075 10.9991 128.533 11.05C129.008 11.084 129.526 11.1858 130.086 11.3556C130.697 11.5423 131.19 11.7969 131.563 12.1194C131.953 12.4419 132.284 12.9002 132.556 13.4943C132.811 14.1053 132.938 14.8352 132.938 15.6839V19.3248C132.938 20.0886 132.811 20.7591 132.556 21.3362C132.318 21.9133 132.004 22.3631 131.614 22.6856C131.274 22.9742 130.808 23.2118 130.214 23.3985C129.636 23.5683 129.068 23.6786 128.508 23.7295C127.998 23.7804 127.387 23.8059 126.674 23.8059ZM126.674 21.489C127.37 21.489 127.897 21.438 128.253 21.3362C128.61 21.2174 128.856 21.0392 128.991 20.8015C129.144 20.5639 129.221 20.2159 129.221 19.7576V15.0983C129.221 14.4193 129.042 13.9441 128.686 13.6725C128.329 13.4009 127.659 13.2651 126.674 13.2651C125.69 13.2651 125.02 13.4009 124.663 13.6725C124.307 13.9441 124.128 14.4193 124.128 15.0983V19.7576C124.128 20.2159 124.196 20.5639 124.332 20.8015C124.485 21.0392 124.739 21.2174 125.096 21.3362C125.452 21.438 125.979 21.489 126.674 21.489Z" fill="#292F45"/>
<path d="M135.835 11.2283H139.374V13.3924C139.374 13.002 139.536 12.6201 139.858 12.2467C140.181 11.8733 140.588 11.5677 141.08 11.3301C141.589 11.0925 142.09 10.9737 142.582 10.9737H143.906V14.0544H142.633C141.581 14.0544 140.8 14.2157 140.291 14.5382C139.799 14.8607 139.552 15.3953 139.552 16.1422V23.5513H135.835V11.2283Z" fill="#292F45"/>
<path d="M145.955 11.2283H149.672V12.7305C149.91 11.5593 151.123 10.9737 153.313 10.9737C154.467 10.9737 155.341 11.1264 155.936 11.4319C156.53 11.7205 156.928 12.1788 157.132 12.8068C157.336 12.1618 157.726 11.695 158.303 11.4065C158.897 11.1179 159.789 10.9737 160.977 10.9737C162.046 10.9737 162.869 11.101 163.446 11.3556C164.024 11.5932 164.422 11.9666 164.643 12.4758C164.881 12.9851 165 13.664 165 14.5127V23.5513H161.282V15.0219C161.282 14.4788 161.248 14.0968 161.18 13.8762C161.113 13.6386 160.96 13.4773 160.722 13.3924C160.502 13.3076 160.111 13.2651 159.551 13.2651C158.855 13.2651 158.354 13.3076 158.049 13.3924C157.76 13.4773 157.565 13.6386 157.463 13.8762C157.378 14.0968 157.336 14.4788 157.336 15.0219V23.5513H153.619V15.0219C153.619 14.4788 153.585 14.0968 153.517 13.8762C153.449 13.6386 153.296 13.4773 153.058 13.3924C152.838 13.3076 152.447 13.2651 151.887 13.2651C151.191 13.2651 150.691 13.3076 150.385 13.3924C150.097 13.4773 149.901 13.6386 149.799 13.8762C149.715 14.0968 149.672 14.4788 149.672 15.0219V23.5513H145.955V11.2283Z" fill="#292F45"/>
<path fill-rule="evenodd" clip-rule="evenodd" d="M26.7876 0C27.2974 0 27.6003 0.569271 27.3156 0.992069L23.2006 7.10252C22.9483 7.47715 22.3969 7.47715 22.1446 7.10252L18.0297 0.992067C17.7449 0.569268 18.0479 0 18.5576 0H26.7876ZM38.0224 30.3064L33.2234 23.1802L28.1518 15.6493C28.007 15.4343 28.007 15.1531 28.1518 14.9382L33.2234 7.4072L38.0224 0.281007C38.1406 0.105352 38.3386 3.00102e-05 38.5503 3.00102e-05H47.6377C48.1474 3.00102e-05 48.4503 0.569297 48.1656 0.992096L45.4006 5.09792L38.7739 14.9382C38.6292 15.1531 38.6292 15.4343 38.7739 15.6492L45.4006 25.4895L48.1656 29.5953C48.4503 30.0181 48.1474 30.5874 47.6377 30.5874H38.5503C38.3386 30.5874 38.1406 30.4821 38.0224 30.3064ZM10.2529 4.56189L12.1689 7.40718L17.2406 14.9381C17.3853 15.1531 17.3853 15.4343 17.2406 15.6492L12.1689 23.1802L10.2529 26.0255C10.1346 26.2011 9.93666 26.3065 9.72489 26.3065H0.637598C0.127866 26.3065 -0.17509 25.7372 0.109635 25.3144L6.61842 15.6492C6.76317 15.4343 6.76317 15.1531 6.61842 14.9381L0.109635 5.27298C-0.17509 4.85018 0.127866 4.28092 0.637598 4.28092H9.72489C9.93666 4.28092 10.1346 4.38624 10.2529 4.56189ZM26.7876 30.5874C27.2974 30.5874 27.6003 30.0181 27.3156 29.5953L23.2006 23.4849C22.9483 23.1102 22.3969 23.1102 22.1446 23.4849L18.0297 29.5953C17.7449 30.0181 18.0479 30.5874 18.5576 30.5874H26.7876Z" fill="url(#paint0_linear)"/>
<defs>
<linearGradient id="paint0_linear" x1="33.0955" y1="-0.747398" x2="11.8653" y2="30.1378" gradientUnits="userSpaceOnUse">
<stop offset="0.0520833" stop-color="#FF8820"/>
<stop offset="0.744792" stop-color="#FF7B2C"/>
<stop offset="1" stop-color="#FF386A"/>
</linearGradient>
</defs>
</svg>
