<svg width="162" height="30" viewBox="0 0 162 30" fill="none" xmlns="http://www.w3.org/2000/svg">
<path d="M61.9482 6.89242H68.4409C70.0225 6.89242 71.2711 7.00064 72.1867 7.21706C73.119 7.43348 73.7932 7.81638 74.2094 8.36577C74.6423 8.8985 74.8587 9.64766 74.8587 10.6132V13.6848C74.8587 14.7502 74.6256 15.5826 74.1595 16.182C73.71 16.7813 72.9858 17.2058 71.9869 17.4555C71.0047 17.7052 69.6729 17.8301 67.9914 17.8301H65.8439V23.0992H61.9482V6.89242ZM68.3161 15.1581C69.3316 15.1581 70.0475 15.0416 70.4637 14.8085C70.8798 14.5588 71.0879 14.1426 71.0879 13.5599V10.9628C71.0879 10.4301 70.8882 10.0805 70.4886 9.91402C70.1057 9.74754 69.3649 9.6643 68.2661 9.6643H65.8439V15.1581H68.3161Z" fill="white"/>
<path d="M77.5545 5.61886H81.2004V23.0992H77.5545V5.61886Z" fill="white"/>
<path d="M87.9235 23.3489C86.7914 23.3489 85.9424 23.249 85.3763 23.0492C84.827 22.8328 84.4357 22.4582 84.2027 21.9255C83.9862 21.3761 83.878 20.5604 83.878 19.4782C83.878 18.5127 83.9946 17.7552 84.2276 17.2058C84.4774 16.6564 84.8686 16.2652 85.4013 16.0321C85.9507 15.7824 86.6999 15.6576 87.6488 15.6576H91.7442V14.8335C91.7442 14.3174 91.6693 13.9345 91.5194 13.6848C91.3862 13.4351 91.1282 13.2603 90.7453 13.1604C90.379 13.0605 89.8213 13.0105 89.0722 13.0105C88.04 13.0105 86.6249 13.1104 84.827 13.3102V11.0128C86.1422 10.8463 87.6821 10.7631 89.4468 10.7631C90.995 10.7631 92.1853 10.8796 93.0177 11.1127C93.8668 11.3457 94.4744 11.7453 94.8407 12.3113C95.2069 12.8774 95.3901 13.7014 95.3901 14.7835V23.0992H91.8191V22.0004C91.5361 22.4832 91.1532 22.8245 90.6704 23.0243C90.1876 23.2407 89.272 23.3489 87.9235 23.3489ZM89.3469 21.0764C90.0794 21.0764 90.6038 21.0515 90.9201 21.0015C91.1532 20.9682 91.3113 20.9183 91.3946 20.8517C91.4945 20.7851 91.5777 20.6769 91.6443 20.5271C91.7109 20.4105 91.7442 20.2357 91.7442 20.0027V17.6553H89.247C88.681 17.6553 88.2814 17.6969 88.0483 17.7802C87.8153 17.8468 87.6571 17.9966 87.5739 18.2297C87.4906 18.4461 87.449 18.8373 87.449 19.4033C87.449 19.9527 87.4906 20.3356 87.5739 20.552C87.6571 20.7685 87.8153 20.91 88.0483 20.9766C88.2981 21.0432 88.7309 21.0764 89.3469 21.0764Z" fill="white"/>
<path d="M104.641 23.3489C104.025 23.3489 103.509 23.3239 103.093 23.274C102.677 23.224 102.26 23.1241 101.844 22.9743C101.378 22.8245 100.995 22.6164 100.695 22.35C100.412 22.0836 100.179 21.7174 99.9962 21.2513C99.7964 20.7685 99.6965 20.2108 99.6965 19.5781V13.2603H97.2493V11.0128H99.6965V7.51672H103.342V11.0128H106.664V13.2603H103.342V18.9538C103.342 19.5365 103.392 19.9777 103.492 20.2773C103.592 20.5604 103.784 20.7685 104.067 20.9016C104.35 21.0182 104.782 21.0764 105.365 21.0764C105.598 21.0764 106.031 21.0348 106.664 20.9516V23.224C105.881 23.3073 105.207 23.3489 104.641 23.3489Z" fill="white"/>
<path d="M109.691 13.2603H107.419V11.0128H109.691V9.18984C109.691 8.20761 109.849 7.44181 110.165 6.89242C110.498 6.3264 110.998 5.93517 111.664 5.71875C112.346 5.48568 113.254 5.36914 114.386 5.36914C115.002 5.36914 115.909 5.43573 117.108 5.56892V7.81638C116.042 7.6832 115.326 7.61661 114.96 7.61661C114.344 7.61661 113.92 7.7165 113.686 7.91627C113.453 8.0994 113.337 8.45733 113.337 8.99006V11.0128H116.658V13.2603H113.337V23.0992H109.691V13.2603Z" fill="white"/>
<path d="M124.242 23.3489C123.493 23.3489 122.877 23.3239 122.394 23.274C121.911 23.224 121.395 23.1241 120.846 22.9743C120.246 22.8078 119.764 22.5748 119.397 22.2751C119.031 21.9588 118.723 21.5176 118.473 20.9516C118.224 20.4022 118.099 19.7363 118.099 18.9538V15.3829C118.099 14.5838 118.224 13.8845 118.473 13.2852C118.723 12.6859 119.048 12.2198 119.447 11.8868C119.797 11.6038 120.255 11.3707 120.821 11.1876C121.403 10.9878 121.97 10.863 122.519 10.813C123.152 10.7797 123.726 10.7631 124.242 10.7631C125.008 10.7631 125.615 10.788 126.065 10.838C126.531 10.8713 127.039 10.9712 127.588 11.1376C128.187 11.3208 128.67 11.5705 129.037 11.8868C129.419 12.2031 129.744 12.6526 130.01 13.2353C130.26 13.8346 130.385 14.5505 130.385 15.3829V18.9538C130.385 19.703 130.26 20.3606 130.01 20.9266C129.777 21.4926 129.469 21.9338 129.086 22.2501C128.754 22.5331 128.296 22.7662 127.713 22.9493C127.147 23.1158 126.589 23.224 126.04 23.274C125.54 23.3239 124.941 23.3489 124.242 23.3489ZM124.242 21.0764C124.925 21.0764 125.441 21.0265 125.79 20.9266C126.14 20.8101 126.381 20.6353 126.514 20.4022C126.664 20.1691 126.739 19.8279 126.739 19.3784V14.8085C126.739 14.1426 126.564 13.6765 126.215 13.4101C125.865 13.1437 125.208 13.0105 124.242 13.0105C123.276 13.0105 122.619 13.1437 122.269 13.4101C121.92 13.6765 121.745 14.1426 121.745 14.8085V19.3784C121.745 19.8279 121.811 20.1691 121.945 20.4022C122.094 20.6353 122.344 20.8101 122.694 20.9266C123.043 21.0265 123.559 21.0764 124.242 21.0764Z" fill="white"/>
<path d="M133.227 11.0128H136.698V13.1354C136.698 12.7525 136.856 12.3779 137.172 12.0117C137.489 11.6454 137.888 11.3457 138.371 11.1127C138.87 10.8796 139.362 10.7631 139.844 10.7631H141.143V13.7847H139.894C138.862 13.7847 138.096 13.9428 137.597 14.2591C137.114 14.5754 136.873 15.0998 136.873 15.8324V23.0992H133.227V11.0128Z" fill="white"/>
<path d="M143.152 11.0128H146.798V12.4861C147.031 11.3374 148.221 10.7631 150.369 10.7631C151.501 10.7631 152.358 10.9129 152.941 11.2126C153.524 11.4956 153.915 11.9451 154.115 12.561C154.315 11.9284 154.697 11.4706 155.263 11.1876C155.846 10.9046 156.72 10.7631 157.885 10.7631C158.934 10.7631 159.742 10.8879 160.308 11.1376C160.874 11.3707 161.265 11.737 161.481 12.2364C161.715 12.7358 161.831 13.4018 161.831 14.2342V23.0992H158.185V14.7336C158.185 14.2009 158.152 13.8263 158.085 13.6099C158.019 13.3768 157.869 13.2186 157.636 13.1354C157.419 13.0522 157.036 13.0105 156.487 13.0105C155.805 13.0105 155.313 13.0522 155.014 13.1354C154.731 13.2186 154.539 13.3768 154.439 13.6099C154.356 13.8263 154.315 14.2009 154.315 14.7336V23.0992H150.669V14.7336C150.669 14.2009 150.635 13.8263 150.569 13.6099C150.502 13.3768 150.352 13.2186 150.119 13.1354C149.903 13.0522 149.52 13.0105 148.971 13.0105C148.288 13.0105 147.797 13.0522 147.497 13.1354C147.214 13.2186 147.023 13.3768 146.923 13.6099C146.84 13.8263 146.798 14.2009 146.798 14.7336V23.0992H143.152V11.0128Z" fill="white"/>
<path fill-rule="evenodd" clip-rule="evenodd" d="M26.2732 0C26.7732 0 27.0703 0.558339 26.791 0.973018L22.755 6.96613C22.5076 7.33357 21.9668 7.33357 21.7194 6.96613L17.6834 0.973016C17.4042 0.558336 17.7013 0 18.2013 0H26.2732ZM37.2922 29.7244L32.5854 22.7351L27.6112 15.3487C27.4692 15.1379 27.4692 14.8621 27.6112 14.6513L32.5854 7.26496L37.2922 0.275611C37.4082 0.103329 37.6023 2.94339e-05 37.81 2.94339e-05H46.7229C47.2228 2.94339e-05 47.5199 0.558365 47.2407 0.973044L44.5288 5.00002L38.0294 14.6513C37.8874 14.8621 37.8874 15.1379 38.0294 15.3487L44.5288 25L47.2407 29.027C47.5199 29.4417 47.2228 30 46.7229 30H37.81C37.6023 30 37.4082 29.8967 37.2922 29.7244ZM10.056 4.47429L11.9353 7.26494L16.9095 14.6513C17.0515 14.8621 17.0515 15.1379 16.9095 15.3487L11.9353 22.7351L10.056 25.5257C9.93995 25.698 9.74585 25.8013 9.53814 25.8013H0.625354C0.125411 25.8013 -0.171727 25.243 0.10753 24.8283L6.49133 15.3487C6.63329 15.1379 6.63329 14.8621 6.49133 14.6513L0.10753 5.17172C-0.171727 4.75704 0.125411 4.19871 0.625354 4.19871H9.53814C9.74585 4.19871 9.93995 4.30201 10.056 4.47429ZM26.2732 30C26.7732 30 27.0703 29.4417 26.791 29.027L22.755 23.0339C22.5076 22.6664 21.9668 22.6664 21.7194 23.0339L17.6834 29.027C17.4042 29.4417 17.7013 30 18.2013 30H26.2732Z" fill="url(#paint0_linear)"/>
<defs>
<linearGradient id="paint0_linear" x1="32.46" y1="-0.733045" x2="11.6375" y2="29.559" gradientUnits="userSpaceOnUse">
<stop offset="0.0520833" stop-color="#FF8820"/>
<stop offset="0.744792" stop-color="#FF7B2C"/>
<stop offset="1" stop-color="#FF386A"/>
</linearGradient>
</defs>
</svg>
