<svg width="34" height="34" viewBox="0 0 34 34" fill="none" xmlns="http://www.w3.org/2000/svg">
<path d="M22.1621 11.6341C22.1621 11.3281 21.9141 11.0801 21.6081 11.0801H11.6359C11.3299 11.0801 11.0819 11.3281 11.0819 11.6341V21.6063C11.0819 21.9123 11.3299 22.1603 11.6359 22.1603H21.6081C21.9141 22.1603 22.1621 21.9123 22.1621 21.6063V11.6341Z" fill="#FF386A"/>
<path d="M11.0801 22.7142C11.0801 22.4082 10.832 22.1602 10.5261 22.1602H0.553843C0.24787 22.1602 -0.000169754 22.4082 -0.000169754 22.7142V32.6864C-0.000169754 32.9924 0.24787 33.2404 0.553843 33.2404H10.5261C10.832 33.2404 11.0801 32.9924 11.0801 32.6864V22.7142Z" fill="#FF8324"/>
<path d="M33.2432 22.7142C33.2432 22.4082 32.9951 22.1602 32.6892 22.1602H22.7169C22.411 22.1602 22.1629 22.4082 22.1629 22.7142V32.6864C22.1629 32.9924 22.411 33.2404 22.7169 33.2404H32.6892C32.9951 33.2404 33.2432 32.9924 33.2432 32.6864V22.7142Z" fill="#FF8324"/>
<path d="M33.2432 0.554012C33.2432 0.248039 32.9951 0 32.6892 0H22.7169C22.411 0 22.1629 0.24804 22.1629 0.554012V10.5262C22.1629 10.8322 22.411 11.0802 22.7169 11.0802H32.6892C32.9951 11.0802 33.2432 10.8322 33.2432 10.5262V0.554012Z" fill="#FF8324"/>
<path d="M11.0801 0.554012C11.0801 0.248039 10.832 0 10.5261 0H0.553843C0.24787 0 -0.000169754 0.24804 -0.000169754 0.554012V10.5262C-0.000169754 10.8322 0.24787 11.0802 0.553843 11.0802H10.5261C10.832 11.0802 11.0801 10.8322 11.0801 10.5262V0.554012Z" fill="#FF8324"/>
</svg>
