<svg width="28" height="25" viewBox="0 0 28 25" fill="none" xmlns="http://www.w3.org/2000/svg">
<path fill-rule="evenodd" clip-rule="evenodd" d="M0.485655 4.14251C0.959236 3.85836 1.5735 4.01192 1.85764 4.4855L6.35764 11.9855C6.54765 12.3022 6.54765 12.6978 6.35764 13.0145L1.85764 20.5145C1.5735 20.9881 0.959236 21.1416 0.485655 20.8575C0.0120751 20.5733 -0.14149 19.9591 0.142658 19.4855L4.33396 12.5L0.142658 5.5145C-0.14149 5.04092 0.0120751 4.42666 0.485655 4.14251ZM27.0265 1.14973C27.4961 1.44043 27.6411 2.05677 27.3504 2.52635L21.1763 12.5L27.3504 22.4736C27.6411 22.9432 27.4961 23.5596 27.0265 23.8503C26.5569 24.141 25.9406 23.9959 25.6499 23.5264L19.1499 13.0264C18.9502 12.7038 18.9502 12.2962 19.1499 11.9736L25.6499 1.47365C25.9406 1.00406 26.5569 0.859037 27.0265 1.14973ZM7.72619 1.07638C8.07059 0.414914 8.7544 0 9.50015 0H16.5002C17.2459 0 17.9297 0.414914 18.2741 1.07638C18.6185 1.73784 18.5663 2.53598 18.1386 3.14692L14.6386 8.14692C14.2644 8.68158 13.6528 9 13.0002 9C12.3475 9 11.7359 8.68158 11.3617 8.14692L7.86169 3.14692C7.43403 2.53598 7.3818 1.73784 7.72619 1.07638ZM12.9271 16.0013C13.5696 15.9779 14.1842 16.2647 14.5789 16.7721L18.0789 21.2721C18.5478 21.8751 18.6324 22.6925 18.2968 23.3787C17.9612 24.0649 17.264 24.5 16.5002 24.5H10.0002C9.26256 24.5 8.58484 24.094 8.2368 23.4437C7.88876 22.7934 7.92691 22.0043 8.33605 21.3906L11.3361 16.8906C11.6927 16.3557 12.2847 16.0248 12.9271 16.0013ZM13.0002 7L16.5002 2H9.50015L13.0002 7ZM13.0002 18L10.0002 22.5H16.5002L13.0002 18Z" fill="white"/>
</svg>
