<svg width="18" height="24" viewBox="0 0 18 24" fill="none" xmlns="http://www.w3.org/2000/svg">
<path d="M13 0H5C3.67441 0.00158786 2.40356 0.528882 1.46622 1.46622C0.528882 2.40356 0.00158786 3.67441 0 5V23C0.000140886 23.1819 0.0498864 23.3603 0.143882 23.516C0.237877 23.6717 0.372562 23.7989 0.533438 23.8837C0.694314 23.9686 0.875288 24.008 1.05688 23.9976C1.23847 23.9873 1.4138 23.9276 1.564 23.825L3.67 22.386L5.776 23.825C5.94239 23.9389 6.13934 23.9999 6.341 23.9999C6.54266 23.9999 6.73961 23.9389 6.906 23.825L9.006 22.386L11.106 23.825C11.2725 23.9392 11.4696 24.0003 11.6715 24.0003C11.8734 24.0003 12.0705 23.9392 12.237 23.825L14.337 22.387L16.437 23.824C16.5871 23.9263 16.7623 23.9857 16.9436 23.996C17.125 24.0062 17.3057 23.9669 17.4664 23.8821C17.627 23.7974 17.7616 23.6706 17.8556 23.5151C17.9496 23.3597 17.9996 23.1816 18 23V5C17.9984 3.67441 17.4711 2.40356 16.5338 1.46622C15.5964 0.528882 14.3256 0.00158786 13 0V0ZM16 21.1L14.9 20.348C14.7334 20.2336 14.5361 20.1724 14.334 20.1724C14.1319 20.1724 13.9346 20.2336 13.768 20.348L11.668 21.787L9.568 20.348C9.40151 20.2338 9.20437 20.1727 9.0025 20.1727C8.80063 20.1727 8.60349 20.2338 8.437 20.348L6.337 21.787L4.237 20.348C4.07071 20.2343 3.87396 20.1734 3.6725 20.1734C3.47105 20.1734 3.27429 20.2343 3.108 20.348L2 21.1V5C2 4.20435 2.31607 3.44129 2.87868 2.87868C3.44129 2.31607 4.20435 2 5 2H13C13.7956 2 14.5587 2.31607 15.1213 2.87868C15.6839 3.44129 16 4.20435 16 5V21.1Z" fill="#FF8225"/>
<path d="M13 8H5C4.44772 8 4 8.44772 4 9C4 9.55228 4.44772 10 5 10H13C13.5523 10 14 9.55228 14 9C14 8.44772 13.5523 8 13 8Z" fill="#FF8225"/>
<path d="M11 12H5C4.44772 12 4 12.4477 4 13C4 13.5523 4.44772 14 5 14H11C11.5523 14 12 13.5523 12 13C12 12.4477 11.5523 12 11 12Z" fill="#FF8225"/>
</svg>
