<svg width="24" height="24" viewBox="0 0 24 24" fill="none" xmlns="http://www.w3.org/2000/svg">
<path d="M23.7066 22.293L22.6296 21.216L20.8996 19.489L23.6886 16.7C23.8073 16.5811 23.8942 16.4342 23.9411 16.2729C23.9881 16.1115 23.9936 15.941 23.9572 15.777C23.9209 15.6129 23.8437 15.4607 23.733 15.3343C23.6223 15.208 23.4815 15.1116 23.3236 15.054L14.3546 11.8C13.9974 11.6709 13.6107 11.6462 13.2399 11.7288C12.8691 11.8114 12.5295 11.9979 12.2609 12.2664C11.9922 12.535 11.8056 12.8745 11.7228 13.2453C11.6401 13.616 11.6646 14.0027 11.7936 14.36L15.0566 23.329C15.1139 23.487 15.2101 23.628 15.3363 23.739C15.4625 23.8499 15.6146 23.9273 15.7786 23.964C15.8499 23.9795 15.9227 23.9872 15.9956 23.987C16.2608 23.9869 16.5151 23.8815 16.7026 23.694L19.4886 20.9L21.2156 22.627L22.2926 23.704C22.4812 23.8862 22.7338 23.9869 22.996 23.9847C23.2582 23.9824 23.509 23.8772 23.6944 23.6918C23.8799 23.5064 23.985 23.2556 23.9873 22.9934C23.9896 22.7312 23.8888 22.4786 23.7066 22.29V22.293ZM16.3996 21.165L13.6756 13.675L21.1656 16.399L16.3996 21.165Z" fill="#FF8225"/>
<path d="M10 20C8.02219 20 6.08879 19.4135 4.4443 18.3147C2.79981 17.2159 1.51809 15.6541 0.761209 13.8268C0.00433284 11.9996 -0.193701 9.98891 0.192152 8.0491C0.578004 6.10929 1.53041 4.32746 2.92894 2.92894C4.32746 1.53041 6.10929 0.578004 8.0491 0.192152C9.98891 -0.193701 11.9996 0.00433284 13.8268 0.761209C15.6541 1.51809 17.2159 2.79981 18.3147 4.4443C19.4135 6.08879 20 8.02219 20 10C20 10.2652 19.8946 10.5196 19.7071 10.7071C19.5196 10.8946 19.2652 11 19 11C18.7348 11 18.4804 10.8946 18.2929 10.7071C18.1054 10.5196 18 10.2652 18 10C18 8.41775 17.5308 6.87104 16.6518 5.55544C15.7727 4.23985 14.5233 3.21447 13.0615 2.60897C11.5997 2.00347 9.99113 1.84504 8.43928 2.15372C6.88743 2.4624 5.46197 3.22433 4.34315 4.34315C3.22433 5.46197 2.4624 6.88743 2.15372 8.43928C1.84504 9.99113 2.00347 11.5997 2.60897 13.0615C3.21447 14.5233 4.23985 15.7727 5.55544 16.6518C6.87104 17.5308 8.41775 18 10 18C10.2652 18 10.5196 18.1054 10.7071 18.2929C10.8946 18.4804 11 18.7348 11 19C11 19.2652 10.8946 19.5196 10.7071 19.7071C10.5196 19.8946 10.2652 20 10 20Z" fill="#FF8225"/>
<path d="M8.08355 15.62C7.95212 15.6201 7.82198 15.5943 7.70055 15.544C6.7894 15.1656 5.98563 14.5683 5.36043 13.8051C4.73523 13.0418 4.30788 12.1362 4.11624 11.1684C3.92459 10.2006 3.97456 9.20044 4.26173 8.25655C4.5489 7.31266 5.06439 6.45415 5.76256 5.75704C6.46073 5.05994 7.32003 4.54576 8.26436 4.26004C9.20869 3.97432 10.2089 3.92588 11.1764 4.119C12.144 4.31213 13.0489 4.74086 13.8112 5.36723C14.5735 5.9936 15.1695 6.79828 15.5465 7.71001C15.5994 7.83182 15.6275 7.96293 15.6291 8.0957C15.6307 8.22847 15.6059 8.36023 15.5561 8.48331C15.5062 8.60638 15.4324 8.7183 15.3388 8.81253C15.2453 8.90676 15.1339 8.98142 15.0112 9.03215C14.8885 9.08288 14.7569 9.10866 14.6242 9.108C14.4914 9.10733 14.3601 9.08023 14.2379 9.02828C14.1157 8.97632 14.0051 8.90055 13.9125 8.80539C13.8199 8.71022 13.7471 8.59757 13.6985 8.47401C13.4466 7.86674 13.0489 7.33094 12.5405 6.91401C12.0322 6.49708 11.4289 6.21188 10.7841 6.08364C10.1393 5.95541 9.47277 5.98809 8.84358 6.1788C8.2144 6.36951 7.64192 6.71237 7.17681 7.17704C6.7117 7.6417 6.3683 8.21385 6.17698 8.84285C5.98567 9.47185 5.95235 10.1383 6.07997 10.7833C6.20759 11.4282 6.49221 12.0318 6.90866 12.5405C7.3251 13.0492 7.86052 13.4475 8.46755 13.7C8.68147 13.7885 8.85805 13.9486 8.96715 14.1528C9.07626 14.357 9.11113 14.5927 9.06582 14.8197C9.0205 15.0468 8.89781 15.2511 8.71868 15.3977C8.53954 15.5444 8.31507 15.6244 8.08355 15.624V15.62Z" fill="#FF8225"/>
</svg>
