<svg width="25" height="25" viewBox="0 0 25 25" fill="none" xmlns="http://www.w3.org/2000/svg">
<path d="M23.0043 12.763C22.7599 12.7601 22.5232 12.8485 22.3405 13.0109C22.1578 13.1732 22.0422 13.3979 22.0163 13.641C21.8516 15.545 21.1441 17.3618 19.9776 18.8757C18.811 20.3896 17.2346 21.5369 15.4354 22.1815C13.6362 22.8261 11.6899 22.9408 9.82741 22.5121C7.96494 22.0834 6.26462 21.1293 4.9283 19.763H7.6733C7.93852 19.763 8.19287 19.6576 8.38041 19.4701C8.56795 19.2825 8.6733 19.0282 8.6733 18.763C8.6733 18.4977 8.56795 18.2434 8.38041 18.0558C8.19287 17.8683 7.93852 17.763 7.6733 17.763H3.6733C3.14287 17.763 2.63416 17.9737 2.25909 18.3487C1.88402 18.7238 1.6733 19.2325 1.6733 19.763V23.763C1.6733 24.0282 1.77866 24.2825 1.9662 24.4701C2.15373 24.6576 2.40809 24.763 2.6733 24.763C2.93852 24.763 3.19287 24.6576 3.38041 24.4701C3.56795 24.2825 3.6733 24.0282 3.6733 23.763V21.325C5.29055 22.917 7.32681 24.0168 9.54495 24.4963C11.7631 24.9757 14.0718 24.8152 16.2022 24.0333C18.3326 23.2513 20.197 21.8803 21.5783 20.0797C22.9596 18.2791 23.8009 16.1232 24.0043 13.863C24.0172 13.7237 24.001 13.5833 23.9566 13.4506C23.9123 13.318 23.8408 13.1961 23.7467 13.0926C23.6527 12.9891 23.538 12.9063 23.4102 12.8496C23.2824 12.7928 23.1442 12.7633 23.0043 12.763ZM21.3353 0.762957C21.0701 0.762957 20.8157 0.868314 20.6282 1.05585C20.4407 1.24339 20.3353 1.49774 20.3353 1.76296V4.20096C18.7181 2.60894 16.6818 1.50914 14.4637 1.02966C12.2455 0.550184 9.93682 0.71075 7.80642 1.49266C5.67601 2.27458 3.81159 3.64566 2.4303 5.44622C1.049 7.24678 0.207674 9.40272 0.00430406 11.663C-0.00861256 11.8022 0.00761984 11.9426 0.051967 12.0753C0.0963141 12.2079 0.167804 12.3299 0.26188 12.4333C0.355957 12.5368 0.470558 12.6196 0.598382 12.6763C0.726206 12.7331 0.864449 12.7626 1.0043 12.763C1.24872 12.7658 1.48542 12.6774 1.66813 12.5151C1.85084 12.3527 1.96643 12.128 1.9923 11.885C2.15696 9.9809 2.86455 8.16407 4.03105 6.6502C5.19756 5.13632 6.77399 3.98898 8.57318 3.3444C10.3724 2.69982 12.3187 2.58507 14.1812 3.01377C16.0437 3.44248 17.744 4.39664 19.0803 5.76296H16.3353C16.0701 5.76296 15.8157 5.86831 15.6282 6.05585C15.4407 6.24339 15.3353 6.49774 15.3353 6.76296C15.3353 7.02817 15.4407 7.28253 15.6282 7.47006C15.8157 7.6576 16.0701 7.76296 16.3353 7.76296H20.3353C20.8657 7.76296 21.3744 7.55224 21.7495 7.17717C22.1246 6.8021 22.3353 6.29339 22.3353 5.76296V1.76296C22.3353 1.49774 22.2299 1.24339 22.0424 1.05585C21.8549 0.868314 21.6005 0.762957 21.3353 0.762957Z" fill="#FF386A"/>
</svg>
