<svg width="25" height="25" viewBox="0 0 25 25" fill="none" xmlns="http://www.w3.org/2000/svg">
<path d="M19.0123 0.759277H14.0123C13.7471 0.759277 13.4927 0.864634 13.3052 1.05217C13.1176 1.23971 13.0123 1.49406 13.0123 1.75928C13.0123 2.02449 13.1176 2.27885 13.3052 2.46638C13.4927 2.65392 13.7471 2.75928 14.0123 2.75928H19.0123C19.4578 2.761 19.8971 2.86357 20.2973 3.05928L0.305288 23.0523C0.209778 23.1445 0.133596 23.2549 0.0811868 23.3769C0.0287778 23.4989 0.00119157 23.6301 3.77567e-05 23.7629C-0.00111606 23.8957 0.0241857 24.0273 0.0744665 24.1502C0.124747 24.2731 0.199001 24.3848 0.292893 24.4787C0.386786 24.5726 0.498438 24.6468 0.621334 24.6971C0.744231 24.7474 0.87591 24.7727 1.00869 24.7715C1.14147 24.7704 1.27269 24.7428 1.39469 24.6904C1.5167 24.638 1.62704 24.5618 1.71929 24.4663L21.7123 4.47428C21.908 4.87448 22.0106 5.31379 22.0123 5.75928V10.7593C22.0123 11.0245 22.1176 11.2788 22.3052 11.4664C22.4927 11.6539 22.7471 11.7593 23.0123 11.7593C23.2775 11.7593 23.5319 11.6539 23.7194 11.4664C23.9069 11.2788 24.0123 11.0245 24.0123 10.7593V5.75928C24.0107 4.43368 23.4834 3.16284 22.5461 2.2255C21.6087 1.28816 20.3379 0.760865 19.0123 0.759277V0.759277Z" fill="#FF8225"/>
<path d="M6.0127 10.7593C6.80382 10.7593 7.57718 10.5247 8.23498 10.0852C8.89277 9.64563 9.40546 9.02092 9.70821 8.29001C10.011 7.55911 10.0902 6.75484 9.93584 5.97892C9.7815 5.20299 9.40053 4.49026 8.84112 3.93085C8.28171 3.37144 7.56898 2.99048 6.79306 2.83614C6.01713 2.6818 5.21287 2.76101 4.48196 3.06376C3.75106 3.36651 3.12634 3.8792 2.68682 4.537C2.24729 5.19479 2.0127 5.96815 2.0127 6.75928C2.0127 7.82015 2.43412 8.83756 3.18427 9.58771C3.93441 10.3379 4.95183 10.7593 6.0127 10.7593ZM6.0127 4.75928C6.40826 4.75928 6.79494 4.87658 7.12384 5.09634C7.45273 5.3161 7.70908 5.62846 7.86045 5.99391C8.01183 6.35936 8.05144 6.7615 7.97427 7.14946C7.8971 7.53742 7.70661 7.89379 7.42691 8.17349C7.1472 8.4532 6.79084 8.64368 6.40288 8.72085C6.01491 8.79802 5.61278 8.75841 5.24733 8.60704C4.88188 8.45566 4.56952 8.19932 4.34976 7.87042C4.12999 7.54152 4.0127 7.15484 4.0127 6.75928C4.0127 6.22885 4.22341 5.72014 4.59848 5.34507C4.97355 4.96999 5.48226 4.75928 6.0127 4.75928ZM18.0127 14.7593C17.2216 14.7593 16.4482 14.9939 15.7904 15.4334C15.1326 15.8729 14.6199 16.4976 14.3172 17.2285C14.0144 17.9595 13.9352 18.7637 14.0896 19.5396C14.2439 20.3156 14.6249 21.0283 15.1843 21.5877C15.7437 22.1471 16.4564 22.5281 17.2323 22.6824C18.0083 22.8368 18.8125 22.7575 19.5434 22.4548C20.2743 22.152 20.899 21.6394 21.3386 20.9816C21.7781 20.3238 22.0127 19.5504 22.0127 18.7593C22.0127 17.6984 21.5913 16.681 20.8411 15.9309C20.091 15.1807 19.0736 14.7593 18.0127 14.7593ZM18.0127 20.7593C17.6171 20.7593 17.2305 20.642 16.9016 20.4222C16.5727 20.2025 16.3163 19.8901 16.1649 19.5246C16.0136 19.1592 15.974 18.7571 16.0511 18.3691C16.1283 17.9811 16.3188 17.6248 16.5985 17.3451C16.8782 17.0654 17.2346 16.8749 17.6225 16.7977C18.0105 16.7205 18.4126 16.7601 18.7781 16.9115C19.1435 17.0629 19.4559 17.3192 19.6756 17.6481C19.8954 17.977 20.0127 18.3637 20.0127 18.7593C20.0127 19.2897 19.802 19.7984 19.4269 20.1735C19.0518 20.5486 18.5431 20.7593 18.0127 20.7593Z" fill="#FF8225"/>
</svg>
