<svg width="20" height="24" viewBox="0 0 20 24" fill="none" xmlns="http://www.w3.org/2000/svg">
<path d="M16.581 2.14024L10.316 0.0512408C10.1109 -0.0170803 9.88913 -0.0170803 9.684 0.0512408L3.419 2.14024C2.42291 2.47112 1.55642 3.1075 0.942645 3.95895C0.328874 4.8104 -0.000961674 5.83363 2.10612e-06 6.88324V12.0002C2.10612e-06 19.5632 9.2 23.7402 9.594 23.9142C9.72182 23.971 9.86014 24.0004 10 24.0004C10.1399 24.0004 10.2782 23.971 10.406 23.9142C10.8 23.7402 20 19.5632 20 12.0002V6.88324C20.001 5.83363 19.6711 4.8104 19.0574 3.95895C18.4436 3.1075 17.5771 2.47112 16.581 2.14024ZM18 12.0002C18 17.4552 11.681 21.0332 10 21.8892C8.317 21.0362 2 17.4692 2 12.0002V6.88324C2.00006 6.25352 2.19828 5.63978 2.56657 5.12898C2.93486 4.61819 3.45455 4.23623 4.052 4.03724L10 2.05424L15.948 4.03724C16.5455 4.23623 17.0651 4.61819 17.4334 5.12898C17.8017 5.63978 17.9999 6.25352 18 6.88324V12.0002Z" fill="#FF386A"/>
<path d="M13.2998 8.30032L9.11179 12.5003L6.86779 10.1603C6.77774 10.0619 6.66889 9.98241 6.54765 9.92667C6.42642 9.87092 6.29526 9.84 6.16189 9.83573C6.02852 9.83146 5.89565 9.85392 5.7711 9.9018C5.64655 9.94967 5.53284 10.022 5.43666 10.1145C5.34049 10.207 5.26381 10.3178 5.21112 10.4404C5.15844 10.563 5.13083 10.6949 5.12991 10.8283C5.12899 10.9618 5.15478 11.094 5.20577 11.2173C5.25676 11.3406 5.33191 11.4525 5.42679 11.5463L7.73279 13.9463C7.90477 14.1321 8.11263 14.281 8.34381 14.3841C8.57499 14.4873 8.82468 14.5424 9.07779 14.5463H9.11079C9.35885 14.5471 9.6046 14.4987 9.83377 14.4037C10.0629 14.3088 10.271 14.1693 10.4458 13.9933L14.7178 9.72132C14.8111 9.62821 14.8851 9.51764 14.9357 9.39591C14.9863 9.27419 15.0124 9.14369 15.0125 9.01188C15.0127 8.88007 14.9868 8.74952 14.9365 8.62769C14.8862 8.50585 14.8124 8.39512 14.7193 8.30182C14.6262 8.20852 14.5156 8.13446 14.3939 8.08389C14.2722 8.03332 14.1417 8.00722 14.0099 8.00708C13.878 8.00694 13.7475 8.03277 13.6257 8.08308C13.5038 8.13339 13.3931 8.20721 13.2998 8.30032Z" fill="#FF386A"/>
</svg>
