<svg width="25" height="25" viewBox="0 0 25 25" fill="none" xmlns="http://www.w3.org/2000/svg">
<path d="M18 7.00112C18 7.1989 17.9414 7.39224 17.8315 7.55669C17.7216 7.72114 17.5654 7.84931 17.3827 7.925C17.2 8.00068 16.9989 8.02049 16.8049 7.9819C16.6109 7.94332 16.4327 7.84808 16.2929 7.70822C16.153 7.56837 16.0578 7.39019 16.0192 7.19621C15.9806 7.00223 16.0004 6.80116 16.0761 6.61843C16.1518 6.43571 16.28 6.27953 16.4444 6.16965C16.6089 6.05977 16.8022 6.00112 17 6.00112C17.2652 6.00112 17.5196 6.10647 17.7071 6.29401C17.8946 6.48155 18 6.7359 18 7.00112ZM14 9.00112C13.8022 9.00112 13.6089 9.05977 13.4444 9.16965C13.28 9.27953 13.1518 9.43571 13.0761 9.61843C13.0004 9.80116 12.9806 10.0022 13.0192 10.1962C13.0578 10.3902 13.153 10.5684 13.2929 10.7082C13.4327 10.8481 13.6109 10.9433 13.8049 10.9819C13.9989 11.0205 14.2 11.0007 14.3827 10.925C14.5654 10.8493 14.7216 10.7211 14.8315 10.5567C14.9414 10.3922 15 10.1989 15 10.0011C15 9.7359 14.8946 9.48155 14.7071 9.29401C14.5196 9.10647 14.2652 9.00112 14 9.00112ZM11 12.0011C10.8022 12.0011 10.6089 12.0598 10.4444 12.1696C10.28 12.2795 10.1518 12.4357 10.0761 12.6184C10.0004 12.8012 9.98063 13.0022 10.0192 13.1962C10.0578 13.3902 10.153 13.5684 10.2929 13.7082C10.4327 13.8481 10.6109 13.9433 10.8049 13.9819C10.9989 14.0205 11.2 14.0007 11.3827 13.925C11.5654 13.8493 11.7216 13.7211 11.8315 13.5567C11.9414 13.3922 12 13.1989 12 13.0011C12 12.7359 11.8946 12.4815 11.7071 12.294C11.5196 12.1065 11.2652 12.0011 11 12.0011ZM23.866 2.95912L23.791 3.17012C22.289 7.33812 20.848 11.3011 18 14.8211V15.0011C17.9982 16.5328 17.6772 18.0473 17.0574 19.448C16.4375 20.8487 15.5325 22.1048 14.4 23.1361C13.8005 23.6892 13.0157 23.9978 12.2 24.0011C11.3511 23.9985 10.5378 23.6597 9.93806 23.0588C9.33834 22.458 9.00105 21.644 9 20.7951V19.6441C8.26209 19.4061 7.59039 18.9982 7.039 18.4531L7 18.4151L4.707 20.7081C4.5184 20.8903 4.2658 20.9911 4.0036 20.9888C3.7414 20.9865 3.49059 20.8813 3.30518 20.6959C3.11977 20.5105 3.0146 20.2597 3.01233 19.9975C3.01005 19.7353 3.11084 19.4827 3.293 19.2941L5.586 17.0011L5.547 16.9631C5.00157 16.4111 4.59269 15.7392 4.353 15.0011H3.363C2.47149 15.0003 1.61671 14.6459 0.98623 14.0156C0.355746 13.3853 0.00105907 12.5306 0 11.6391C0.00176888 10.7684 0.337503 9.9316 0.938 9.30112C1.9835 8.22738 3.23879 7.38029 4.62576 6.81257C6.01272 6.24484 7.50169 5.96863 9 6.00112H9.18C12.7 3.15412 16.66 1.71312 20.826 0.212118L21.042 0.135118C21.4362 -0.00980112 21.8636 -0.038857 22.2738 0.0513831C22.684 0.141623 23.0598 0.347388 23.3568 0.644366C23.6537 0.941343 23.8595 1.31712 23.9497 1.7273C24.04 2.13748 24.0109 2.56492 23.866 2.95912ZM3.363 13.0011H4.1C4.17512 12.12 4.48258 11.2746 4.991 10.5511C5.54904 9.74822 6.15305 8.97827 6.8 8.24512C5.12253 8.59233 3.58896 9.43789 2.4 10.6711C2.14706 10.9303 2.00379 11.277 2 11.6391C2.00053 12.0004 2.14433 12.3466 2.39986 12.602C2.65539 12.8573 3.00176 13.0009 3.363 13.0011ZM15.7 17.2531C14.9827 17.881 14.2309 18.4683 13.448 19.0121C12.7239 19.5156 11.8791 19.8179 11 19.8881V20.7951C11.0005 21.115 11.1279 21.4216 11.3542 21.6477C11.5804 21.8737 11.8871 22.0009 12.207 22.0011C12.5241 21.9964 12.828 21.8734 13.059 21.6561C14.3482 20.476 15.2659 18.9461 15.7 17.2531ZM21.937 2.06412C21.9104 2.03448 21.8751 2.01391 21.8362 2.00531C21.7973 1.9967 21.7567 2.00048 21.72 2.01612L21.505 2.09412C16.661 3.83912 12.478 5.34712 8.876 8.94812C8.04974 9.80018 7.29768 10.7212 6.628 11.7011C6.22066 12.2793 6.03069 12.9828 6.09162 13.6874C6.15255 14.392 6.46046 15.0525 6.961 15.5521L8.453 17.0421C8.95242 17.5423 9.6124 17.8501 10.3166 17.9112C11.0208 17.9723 11.7239 17.7828 12.302 17.3761C13.2814 16.7065 14.2017 15.9545 15.053 15.1281C18.653 11.5281 20.163 7.34112 21.909 2.49512L21.985 2.28412C22.0012 2.24706 22.0053 2.20585 21.9966 2.16634C21.988 2.12684 21.9671 2.09106 21.937 2.06412Z" fill="#FF386A"/>
</svg>
