<svg width="24" height="24" viewBox="0 0 24 24" fill="none" xmlns="http://www.w3.org/2000/svg">
<path fill-rule="evenodd" clip-rule="evenodd" d="M13.7074 0.0012604C13.2566 -0.0160693 12.8085 0.145877 12.4708 0.451714C12.2019 0.695253 12.0193 1.01543 11.9482 1.36588L11.9217 1.56354L11.9156 1.73896L12.4487 9.56818C12.5152 10.5661 13.3936 11.3258 14.4158 11.2681L22.3903 10.7481C22.857 10.7143 23.2848 10.5029 23.5851 10.1601C23.8243 9.88718 23.9682 9.54745 23.9971 9.19026L23.9998 8.94804L23.9883 8.80901C23.1632 3.84195 18.8499 0.146723 13.7074 0.0012604ZM13.6935 1.73877L13.9544 1.75113C18.0142 1.99726 21.398 4.89618 22.1825 8.80016L22.2218 9.01618L14.3056 9.53397C14.2656 9.5362 14.2244 9.50058 14.2212 9.45371L13.6935 1.73877ZM8.13768 4.61444C9.00239 4.49623 9.85316 4.9495 10.1973 5.71278C10.3025 5.92188 10.3658 6.14877 10.384 6.38529L10.8502 12.9715C10.8565 13.0617 10.8992 13.1458 10.969 13.2051C11.0214 13.2496 11.0857 13.2774 11.1576 13.2855L11.2319 13.2869L17.9209 12.884C18.4641 12.852 18.9966 13.0411 19.3925 13.4063C19.7883 13.7716 20.0122 14.2806 20.0092 14.8695C19.7118 19.2045 16.5276 22.8285 12.1908 23.7678C7.85403 24.7072 3.40334 22.7369 1.26938 18.9419C0.698751 17.9635 0.314134 16.8934 0.136557 15.8099L0.0797122 15.4031C0.0303628 15.0985 0.00382828 14.7909 0 14.4955L0.00373643 14.2047C0.016078 9.67861 3.19387 5.76489 7.66571 4.70927L7.97259 4.64175L8.13768 4.61444ZM8.41956 6.33379L8.31845 6.34529L8.04428 6.40723C4.48217 7.26576 1.92729 10.3324 1.7854 13.9452L1.77921 14.2393C1.77068 14.4631 1.77885 14.687 1.80584 14.9253L1.83917 15.169C1.95839 16.1941 2.28939 17.1848 2.81882 18.0927C4.57944 21.2236 8.23988 22.8441 11.8067 22.0715C15.3734 21.2989 17.9922 18.3184 18.2348 14.8097C18.2349 14.7569 18.2127 14.7063 18.1734 14.6701C18.1472 14.6459 18.115 14.6295 18.0808 14.6222L18.0286 14.6181L11.3507 15.0204C10.7871 15.0604 10.2304 14.8791 9.80388 14.5166C9.37733 14.1541 9.11605 13.6403 9.07811 13.092L8.61228 6.51143C8.61144 6.50053 8.60847 6.48989 8.58804 6.44761C8.55765 6.38037 8.49162 6.3376 8.41956 6.33379Z" fill="url(#paint0_linear)"/>
<defs>
<linearGradient id="paint0_linear" x1="49.0209" y1="-3.31916" x2="8.35569" y2="28.3472" gradientUnits="userSpaceOnUse">
<stop stop-color="#FF8820"/>
<stop offset="0.744792" stop-color="#FF7B2C"/>
<stop offset="1" stop-color="#FF386A"/>
</linearGradient>
</defs>
</svg>
