<svg width="555" height="357" viewBox="0 0 555 357" fill="none" xmlns="http://www.w3.org/2000/svg">
<rect width="555" height="357" fill="#FF8225"/>
<path opacity="0.5" fill-rule="evenodd" clip-rule="evenodd" d="M205.323 25C206.664 25 207.461 26.3878 206.712 27.4185L195.889 42.315C195.225 43.2283 193.775 43.2283 193.111 42.315L182.288 27.4185C181.539 26.3878 182.336 25 183.677 25L205.323 25Z" fill="white"/>
<path opacity="0.5" fill-rule="evenodd" clip-rule="evenodd" d="M65.677 260C64.3363 260 63.5395 258.612 64.2884 257.581L75.1115 242.685C75.775 241.772 77.2251 241.772 77.8887 242.685L88.7116 257.581C89.4605 258.612 88.6637 260 87.323 260L65.677 260Z" fill="white"/>
<rect width="18" height="18" rx="2" transform="matrix(1 0 0 -1 40 43)" fill="white" fill-opacity="0.5"/>
<rect width="19" height="18" rx="2" transform="matrix(1 0 0 -1 58 61)" fill="white"/>
<rect width="19" height="18" rx="2" transform="matrix(1 0 0 -1 243 300)" fill="white"/>
<path fill-rule="evenodd" clip-rule="evenodd" d="M356.263 -2C357.86 -2 358.813 -0.219707 357.927 1.1094L349.664 13.5039C348.872 14.6913 347.127 14.6913 346.336 13.5038L338.073 1.1094C337.187 -0.219715 338.14 -2 339.737 -2H356.263Z" fill="white"/>
<rect x="390" y="251" width="18" height="18" rx="2" transform="rotate(-180 390 251)" fill="white" fill-opacity="0.5"/>
<path opacity="0.3" fill-rule="evenodd" clip-rule="evenodd" d="M636.779 -6C631.447 -6 628.277 -0.193275 631.256 4.11939L674.302 66.4478C676.942 70.2691 682.709 70.2691 685.348 66.4478L728.394 4.11936C731.373 -0.193302 728.204 -6 722.871 -6H636.779ZM519.254 303.134L569.455 230.445L622.509 153.627C624.023 151.434 624.023 148.566 622.509 146.373L569.455 69.5555L519.254 -3.13364C518.017 -4.92538 515.946 -5.99969 513.731 -5.99969H418.67C413.338 -5.99969 410.168 -0.193008 413.147 4.11966L442.071 46.0003L511.392 146.374C512.906 148.566 512.906 151.434 511.392 153.627L442.071 254L413.147 295.881C410.168 300.193 413.338 306 418.67 306H513.731C515.946 306 518.017 304.926 519.254 303.134ZM809.746 40.5326L789.703 69.5554L736.649 146.373C735.135 148.566 735.135 151.434 736.649 153.627L789.703 230.445L809.746 259.467C810.984 261.259 813.054 262.333 815.269 262.333H910.33C915.662 262.333 918.832 256.527 915.853 252.214L847.766 153.627C846.252 151.434 846.252 148.566 847.766 146.373L915.853 47.7859C918.832 43.4733 915.662 37.6666 910.33 37.6666H815.269C813.054 37.6666 810.984 38.7409 809.746 40.5326ZM636.779 306C631.447 306 628.277 300.193 631.256 295.881L674.302 233.552C676.942 229.731 682.709 229.731 685.348 233.552L728.394 295.881C731.373 300.193 728.204 306 722.871 306H636.779Z" fill="white"/>
<path opacity="0.3" fill-rule="evenodd" clip-rule="evenodd" d="M-15 194.957C-15 200.588 -8.83197 203.934 -4.25096 200.789L61.9557 155.332C66.0148 152.545 66.0148 146.454 61.9557 143.668L-4.25098 98.2111C-8.83199 95.0659 -15 98.4125 -15 104.043L-15 194.957Z" fill="white"/>
<path d="M245.972 165.457H256.764C259.393 165.457 261.469 165.636 262.991 165.996C264.54 166.356 265.661 166.992 266.353 167.906C267.072 168.791 267.432 170.036 267.432 171.641V176.747C267.432 178.518 267.045 179.902 266.27 180.898C265.523 181.894 264.319 182.6 262.659 183.015C261.026 183.43 258.812 183.637 256.017 183.637H252.448V192.396H245.972V165.457ZM256.557 179.196C258.245 179.196 259.435 179.002 260.127 178.615C260.818 178.2 261.164 177.508 261.164 176.539V172.223C261.164 171.337 260.832 170.756 260.168 170.479C259.532 170.202 258.3 170.064 256.474 170.064H252.448V179.196H256.557Z" fill="white"/>
<path d="M271.913 163.34H277.974V192.396H271.913V163.34Z" fill="white"/>
<path d="M289.149 192.811C287.267 192.811 285.856 192.645 284.915 192.313C284.002 191.953 283.351 191.33 282.964 190.445C282.604 189.532 282.424 188.176 282.424 186.377C282.424 184.772 282.618 183.513 283.006 182.6C283.421 181.687 284.071 181.036 284.956 180.649C285.87 180.234 287.115 180.026 288.692 180.026H295.5V178.656C295.5 177.799 295.375 177.162 295.126 176.747C294.905 176.332 294.476 176.041 293.839 175.875C293.231 175.709 292.303 175.626 291.058 175.626C289.343 175.626 286.99 175.792 284.002 176.124V172.306C286.188 172.029 288.748 171.89 291.681 171.89C294.254 171.89 296.233 172.084 297.617 172.472C299.028 172.859 300.038 173.523 300.647 174.464C301.256 175.405 301.56 176.775 301.56 178.573V192.396H295.624V190.569C295.154 191.372 294.517 191.939 293.715 192.271C292.912 192.631 291.39 192.811 289.149 192.811ZM291.515 189.034C292.732 189.034 293.604 188.992 294.13 188.909C294.517 188.854 294.78 188.771 294.919 188.66C295.085 188.549 295.223 188.369 295.334 188.12C295.444 187.927 295.5 187.636 295.5 187.249V183.347H291.349C290.408 183.347 289.744 183.416 289.356 183.554C288.969 183.665 288.706 183.914 288.568 184.302C288.429 184.661 288.36 185.312 288.36 186.253C288.36 187.166 288.429 187.802 288.568 188.162C288.706 188.522 288.969 188.757 289.356 188.868C289.771 188.978 290.491 189.034 291.515 189.034Z" fill="white"/>
<path d="M316.937 192.811C315.913 192.811 315.055 192.769 314.363 192.686C313.672 192.603 312.98 192.437 312.288 192.188C311.513 191.939 310.877 191.593 310.379 191.151C309.908 190.708 309.521 190.099 309.216 189.324C308.884 188.522 308.718 187.595 308.718 186.543V176.041H304.65V172.306H308.718V166.494H314.779V172.306H320.299V176.041H314.779V185.505C314.779 186.474 314.862 187.207 315.028 187.705C315.194 188.176 315.512 188.522 315.982 188.743C316.453 188.937 317.172 189.034 318.141 189.034C318.528 189.034 319.248 188.964 320.299 188.826V192.603C318.999 192.742 317.878 192.811 316.937 192.811Z" fill="white"/>
<path d="M325.331 176.041H321.554V172.306H325.331V169.275C325.331 167.643 325.594 166.37 326.12 165.457C326.673 164.516 327.503 163.865 328.61 163.506C329.745 163.118 331.253 162.925 333.135 162.925C334.159 162.925 335.667 163.035 337.659 163.257V166.992C335.888 166.771 334.698 166.66 334.09 166.66C333.066 166.66 332.36 166.826 331.973 167.158C331.585 167.463 331.391 168.058 331.391 168.943V172.306H336.912V176.041H331.391V192.396H325.331V176.041Z" fill="white"/>
<path d="M349.518 192.811C348.273 192.811 347.249 192.769 346.447 192.686C345.644 192.603 344.786 192.437 343.873 192.188C342.877 191.912 342.074 191.524 341.465 191.026C340.857 190.5 340.345 189.767 339.93 188.826C339.515 187.913 339.307 186.806 339.307 185.505V179.57C339.307 178.241 339.515 177.079 339.93 176.083C340.345 175.087 340.884 174.312 341.549 173.758C342.13 173.288 342.891 172.901 343.831 172.596C344.8 172.264 345.741 172.057 346.654 171.973C347.706 171.918 348.66 171.89 349.518 171.89C350.791 171.89 351.801 171.932 352.548 172.015C353.323 172.07 354.167 172.236 355.08 172.513C356.077 172.817 356.879 173.233 357.488 173.758C358.124 174.284 358.664 175.031 359.107 176C359.522 176.996 359.729 178.186 359.729 179.57V185.505C359.729 186.751 359.522 187.844 359.107 188.785C358.719 189.725 358.207 190.459 357.571 190.985C357.017 191.455 356.256 191.842 355.288 192.147C354.347 192.424 353.42 192.603 352.507 192.686C351.677 192.769 350.68 192.811 349.518 192.811ZM349.518 189.034C350.653 189.034 351.511 188.951 352.092 188.785C352.673 188.591 353.074 188.3 353.296 187.913C353.545 187.525 353.669 186.958 353.669 186.211V178.615C353.669 177.508 353.379 176.733 352.797 176.29C352.216 175.848 351.123 175.626 349.518 175.626C347.913 175.626 346.82 175.848 346.239 176.29C345.658 176.733 345.367 177.508 345.367 178.615V186.211C345.367 186.958 345.478 187.525 345.699 187.913C345.948 188.3 346.364 188.591 346.945 188.785C347.526 188.951 348.384 189.034 349.518 189.034Z" fill="white"/>
<path d="M364.453 172.306H370.223V175.834C370.223 175.197 370.486 174.575 371.011 173.966C371.537 173.357 372.201 172.859 373.004 172.472C373.834 172.084 374.65 171.89 375.453 171.89H377.611V176.913H375.536C373.82 176.913 372.547 177.176 371.717 177.702C370.914 178.227 370.513 179.099 370.513 180.317V192.396H364.453V172.306Z" fill="white"/>
<path d="M380.951 172.306H387.011V174.755C387.399 172.845 389.377 171.89 392.947 171.89C394.829 171.89 396.254 172.14 397.223 172.638C398.191 173.108 398.841 173.855 399.173 174.879C399.506 173.828 400.142 173.067 401.083 172.596C402.051 172.126 403.504 171.89 405.441 171.89C407.185 171.89 408.527 172.098 409.468 172.513C410.409 172.901 411.059 173.509 411.419 174.339C411.806 175.17 412 176.277 412 177.66V192.396H405.939V178.49C405.939 177.605 405.884 176.982 405.773 176.622C405.663 176.235 405.414 175.972 405.026 175.834C404.666 175.695 404.03 175.626 403.117 175.626C401.982 175.626 401.166 175.695 400.668 175.834C400.197 175.972 399.879 176.235 399.713 176.622C399.575 176.982 399.506 177.605 399.506 178.49V192.396H393.445V178.49C393.445 177.605 393.39 176.982 393.279 176.622C393.169 176.235 392.919 175.972 392.532 175.834C392.172 175.695 391.536 175.626 390.623 175.626C389.488 175.626 388.672 175.695 388.174 175.834C387.703 175.972 387.385 176.235 387.219 176.622C387.081 176.982 387.011 177.605 387.011 178.49V192.396H380.951V172.306Z" fill="white"/>
<path fill-rule="evenodd" clip-rule="evenodd" d="M186.672 154C187.503 154 187.997 154.928 187.533 155.617L180.824 165.579C180.413 166.19 179.514 166.19 179.102 165.579L172.394 155.617C171.93 154.928 172.424 154 173.255 154H186.672ZM204.988 203.409L197.164 191.791L188.896 179.513C188.66 179.163 188.66 178.704 188.896 178.354L197.164 166.076L204.988 154.458C205.181 154.172 205.503 154 205.849 154H220.664C221.495 154 221.989 154.928 221.525 155.617L217.017 162.311L206.213 178.354C205.977 178.704 205.977 179.163 206.213 179.513L217.017 195.556L221.525 202.249C221.989 202.939 221.495 203.867 220.664 203.867H205.849C205.503 203.867 205.181 203.695 204.988 203.409ZM159.715 161.437L162.839 166.076L171.107 178.354C171.343 178.704 171.343 179.163 171.107 179.513L162.839 191.791L159.715 196.429C159.522 196.716 159.2 196.888 158.855 196.888H144.039C143.208 196.888 142.715 195.959 143.179 195.27L153.79 179.513C154.026 179.163 154.026 178.704 153.79 178.354L143.179 162.597C142.715 161.907 143.208 160.979 144.039 160.979H158.855C159.2 160.979 159.522 161.151 159.715 161.437ZM186.672 203.867C187.503 203.867 187.997 202.939 187.533 202.249L180.824 192.287C180.413 191.677 179.514 191.677 179.102 192.287L172.394 202.249C171.93 202.939 172.424 203.867 173.255 203.867H186.672Z" fill="white"/>
</svg>
