<?xml version="1.0" encoding="UTF-8"?>
<!DOCTYPE svg PUBLIC "-//W3C//DTD SVG 1.1//EN" "http://www.w3.org/Graphics/SVG/1.1/DTD/svg11.dtd">
<!-- Creator: CorelDRAW X8 -->
<svg xmlns="http://www.w3.org/2000/svg" xml:space="preserve" width="94px" height="94px" version="1.1" style="shape-rendering:geometricPrecision; text-rendering:geometricPrecision; image-rendering:optimizeQuality; fill-rule:evenodd; clip-rule:evenodd"
viewBox="0 0 940000 940000"
 xmlns:xlink="http://www.w3.org/1999/xlink">
 <defs>
  <style type="text/css">
   <![CDATA[
    .fil0 {fill:white}
   ]]>
  </style>
 </defs>
 <g id="Слой_x0020_1">
  <metadata id="CorelCorpID_0Corel-Layer"/>
  <path class="fil0" d="M469976 47c-259560,0 -469976,210417 -469976,469977 0,259560 210416,469976 469976,469976 259560,0 469977,-210416 469977,-469976 0,-259560 -210417,-469977 -469977,-469977zm284333 333998c4370,-14566 0,-24750 -20380,-24750l-67948 0c-17478,0 -25234,9213 -29604,19409 0,0 -34460,84444 -83485,138786 -16010,16021 -22795,20877 -31534,20877 -4370,0 -10670,-4856 -10670,-19409l0 -134913c0,-17479 -4867,-24750 -19420,-24750l-106777 0c-10670,0 -17455,8242 -17455,15513 0,16507 24264,20392 27165,66018l0 99968c0,21836 -3872,25732 -12612,25732 -22819,0 -79103,-84455 -112106,-181510 -6797,-17953 -13097,-25721 -30575,-25721l-67948 0c-19421,0 -23293,9213 -23293,19409 0,17952 22819,107251 107251,225183 56307,80560 135411,124232 207231,124232 43199,0 48539,-9698 48539,-26194l0 -61151c0,-19408 3873,-23304 17952,-23304 10184,0 27177,4867 67451,43684 46100,46112 53880,66965 79601,66965l67948 0c19408,0 29095,-9698 23281,-28621 -6300,-18935 -28148,-46598 -57267,-79601 -16010,-18923 -39800,-38829 -46586,-49013 -10195,-13097 -7282,-18935 0,-30090 0,-485 82987,-116949 91241,-156749l0 0z"/>
 </g>
</svg>
