<svg width="20" height="24" viewBox="0 0 20 24" fill="none" xmlns="http://www.w3.org/2000/svg">
<path fill-rule="evenodd" clip-rule="evenodd" d="M9.6053 0C6.08447 0 3.23027 2.86637 3.23027 6.40221C3.23027 9.93805 6.08447 12.8044 9.6053 12.8044C13.1261 12.8044 15.9803 9.93805 15.9803 6.40221C15.9803 2.86637 13.1261 0 9.6053 0ZM9.60497 1.73716C12.1704 1.73716 14.2502 3.82575 14.2502 6.40216C14.2502 8.97857 12.1704 11.0672 9.60497 11.0672C7.03949 11.0672 4.95977 8.97857 4.95977 6.40216C4.95977 3.82575 7.03949 1.73716 9.60497 1.73716ZM6.99606 15.385C6.0628 15.4498 5.11945 15.583 4.18896 15.7825C2.39301 16.1524 0.956223 16.8915 0.344687 18.1198C0.114033 18.6002 -0.0019324 19.1145 2.4354e-05 19.6352C-0.000667611 20.1522 0.114359 20.6672 0.336741 21.1383C0.923932 22.3525 2.19336 23.0396 3.90749 23.4205L4.21455 23.4845C5.11978 23.6888 6.06341 23.8263 7.01336 23.8908C7.09426 23.9145 7.28709 23.9366 7.49755 23.9473L7.67066 23.9538C7.75967 23.9559 7.86069 23.9564 8.01121 23.9564C9.37661 24.0315 10.7921 24.0097 12.201 23.8897C12.9518 23.8383 13.7077 23.7401 14.4573 23.5963L15.0181 23.4798C16.8691 23.1147 18.2551 22.4203 18.8623 21.1397C19.3125 20.1889 19.3125 19.0856 18.8625 18.1353C18.2568 16.8579 16.8884 16.1692 15.004 15.7811C14.2647 15.6232 13.5134 15.5064 12.7568 15.4318L12.2036 15.385C10.4711 15.2322 8.72859 15.2322 6.99606 15.385ZM12.0521 17.1155L12.0673 17.1168C12.9357 17.1779 13.7988 17.2998 14.6503 17.4815C16.05 17.7699 16.9999 18.2479 17.3004 18.8817C17.5266 19.3596 17.5266 19.9149 17.3002 20.3932C17.0194 20.9854 16.1663 21.4429 14.9332 21.7225L14.6633 21.7797C13.795 21.9734 12.9348 22.0982 12.0689 22.1576C10.7254 22.2719 9.38978 22.2925 8.05757 22.2204L7.58525 22.2123C7.45413 22.2057 7.34362 22.193 7.24121 22.1724C6.43032 22.1112 5.70064 22.0144 4.99217 21.874L4.56915 21.7844C3.1651 21.5092 2.20683 21.0291 1.89613 20.3867C1.78742 20.1563 1.72935 19.8963 1.72969 19.6331C1.72872 19.3713 1.78602 19.1172 1.89727 18.8854C2.19936 18.2788 3.21488 17.7564 4.54311 17.4828C5.40073 17.299 6.26339 17.1772 7.13137 17.1168C8.77908 16.9716 10.4203 16.9716 12.0521 17.1155Z" fill="white"/>
</svg>
