<svg width="24" height="23" viewBox="0 0 24 23" fill="none" xmlns="http://www.w3.org/2000/svg">
<path fill-rule="evenodd" clip-rule="evenodd" d="M6.97439 0H17.0254C20.8772 0 23.9998 3.19336 23.9998 7.13243V8.02819L23.9999 8.04291L23.9998 8.05763V14.4291L23.9999 14.4438L23.9998 14.4586V15.6674C23.9998 19.6064 20.8772 22.7998 17.0254 22.7998H6.97439C3.1226 22.7998 0 19.6064 0 15.6674V7.13243C0 3.19336 3.1226 0 6.97439 0ZM22.255 7.1325V7.15101H18.4202L18.2006 7.1572C16.0919 7.27496 14.4175 9.05897 14.4175 11.2434C14.4188 13.5036 16.2098 15.3344 18.4197 15.3357H22.255V15.6674C22.255 18.6213 19.9133 21.0161 17.0249 21.0161H6.97385C4.08539 21.0161 1.74373 18.6213 1.74373 15.6674V7.1325C1.74373 4.17859 4.08539 1.78387 6.97385 1.78387H17.0249C19.9133 1.78387 22.255 4.17859 22.255 7.1325ZM18.4207 8.93481H22.255V13.5519H18.4202L18.2437 13.5449C17.0792 13.4522 16.1625 12.4573 16.1617 11.2428C16.1617 9.96891 17.1729 8.9356 18.4207 8.93481ZM19.8253 11.17C19.8253 10.6775 19.4348 10.2781 18.9532 10.2781H18.5907L18.4724 10.2863C18.0467 10.3453 17.7186 10.7185 17.7186 11.17C17.7186 11.6626 18.1091 12.0619 18.5907 12.0619H18.9532L19.0715 12.0538C19.4972 11.9947 19.8253 11.6216 19.8253 11.17ZM13.297 6.28863C13.297 5.79605 12.9065 5.39673 12.4249 5.39673H6.1467L6.02836 5.40487C5.60267 5.46393 5.27456 5.8371 5.27456 6.28863C5.27456 6.78121 5.66503 7.18053 6.1467 7.18053H12.4249L12.5432 7.17239C12.9689 7.11333 13.297 6.74017 13.297 6.28863Z" fill="white"/>
</svg>
