<svg width="439" height="148" viewBox="0 0 439 148" fill="none" xmlns="http://www.w3.org/2000/svg">
<g opacity="0.05">
<path d="M54.3487 72.5177L2.274 0H43.2061L74.8147 49.2573L106.196 0H147.128L95.0534 72.5177L149.629 148H108.47L74.8147 95.5501L40.9321 148H0L54.3487 72.5177Z" fill="#FF8225"/>
<path d="M208.244 72.5177L156.169 0H197.101L228.71 49.2573L260.091 0H301.023L248.948 72.5177L303.524 148H262.365L228.71 95.5501L194.827 148H153.895L208.244 72.5177Z" fill="#FF8225"/>
<path d="M321.434 0H380.558C394.96 0 406.33 0.988188 414.668 2.96456C423.158 4.94094 429.298 8.43759 433.088 13.4545C437.029 18.3195 439 25.1608 439 33.9784V62.0277C439 71.7576 436.878 79.359 432.633 84.8321C428.54 90.3051 421.945 94.1818 412.849 96.4622C403.905 98.7427 391.777 99.8829 376.465 99.8829H356.908V148H321.434V0ZM379.421 75.4823C388.669 75.4823 395.188 74.4181 398.978 72.2897C402.768 70.0092 404.663 66.2085 404.663 60.8875V37.171C404.663 32.3061 402.843 29.1135 399.205 27.5932C395.718 26.0729 388.972 25.3128 378.966 25.3128H356.908V75.4823H379.421Z" fill="#FF8225"/>
</g>
</svg>
